<svg width="856" height="856"
     xmlns="http://www.w3.org/2000/svg" version="1.1">
<style>path {fill-opacity:1; stroke:none;}</style>
<path d="M 45,408L 46,407L 47,406L 48,405L 48,400L 47,397L 46.5,395.5L 45.5117,392.5195L 44.5898,389.6289L 43.8242,386.8945L 43.2461,384.2852L 43,382.9199L 42.7744,381.4932L 42.5811,380.0132L 42.2688,376.9634L 42.1138,373.7764L 42.1318,370.5566L 42.3491,367.4268L 42.5658,365.9431L 43.0939,363.0413L 43.4417,361.6364L 44.2019,358.853L 44.6377,357.5L 45.5483,354.8672L 46.5308,352.4102L 47.0612,351.2798L 48.1728,349.0941L 48.7783,348.0583L 50.0318,346.013L 51.3677,344.0018L 52.7998,342.0001L 54.3525,340L 56,338L 56.7905,337.0195L 58.4238,335.1094L 60.1777,333.3438L 62.0444,331.7539L 63,331L 64,330.0879L 66,328.3418L 67,327.5479L 69,326.0039L 71,324.5479L 73,323.2148L 75,322L 76,321.3376L 78,320.0305L 79,319.4048L 81,318.1963L 82,317.6347L 84,316.5462L 85,316.0287L 87,315.0065L 88,314.5037L 89,314.0021L 91.0039,313.0003L 93.0391,312L 95.1797,311L 97.5078,310L 98.7539,309.5L 101.2539,308.5L 103.8418,307.5L 106.5879,306.5L 108,306L 110.4688,305L 113,304L 115,303L 116,302L 116,297L 115,295L 114,294L 109,294L 106,295L 103,296L 100,297L 97.5313,298L 95,299L 92.9609,300L 90.8203,301L 88.4922,302L 86,303L 84,304L 82,305L 80,306L 78,307.2256L 76,308.3872L 74,309.4731L 73,310L 72,310.624L 70,311.8389L 68,313L 66,314.5098L 64,315.9551L 62,317.3281L 61,318L 59,319.6777L 57,321.248L 56,322L 55,323L 54,324L 53,325L 52,326L 51,327L 50,328L 49,329L 48,330L 47,331L 45.5156,333L 44,335L 42.5156,337L 41,339L 40,341L 39,343L 38,345L 37,347L 36,349L 35,351L 34,354L 33,357L 32.7656,358.2656L 32.2656,360.7656L 32,362L 31.9121,363.5508L 31.6582,366.6055L 31.2461,369.5547L 31,371L 31,375L 31.2461,376.5078L 31.6582,379.6836L 31.9121,383.1758L 32,385L 32.334,386.332L 33,389L 33.334,390.332L 34,393L 35,396L 36,399L 37,401.4688L 38,404L 39,406L 40,408Z" style="fill:rgb(3,3,3);"/>
<path d="M 54,423L 56,422L 57,419L 57,416L 56,415L 55,414L 54,413L 48,413L 47,415L 47,420L 48,422L 49,423Z" style="fill:rgb(3,3,3);"/>
<path d="M 79,457.6291L 81,459.3323L 83,461.1432L 85,463.0467L 87,465L 89,466.5776L 91,468.2444L 93,470L 94,470.7686L 96,472.3491L 98,474L 100,475.4844L 102,477L 104,478.4844L 106,480L 108,481.4844L 110,483L 112,484.4844L 114,486L 115,486.666L 117,488L 118,488.666L 120,490L 121,490.666L 123,492L 124,492.666L 126,494L 127,494.666L 129,496L 130,496.666L 132,498L 133,498.666L 135,500L 136.791,501.3081L 137.4736,502.1868L 138.3428,504.1851L 138.2139,505.2532L 137.8269,506.2502L 136.6624,508.1132L 134.936,509.7563L 132.9937,511.2667L 132,512L 130,513.6777L 128,515.248L 127,516L 126,516.9121L 124,518.6582L 122,520.2461L 121,521L 120,522L 119,523L 118,524L 117,525L 116,526L 115,527L 114,528L 113,529L 112,530L 111,531L 110,532L 109,533L 108,534L 107.2314,535L 105.6509,537L 104,539L 103.334,540L 102,542L 101.334,543L 100,545L 99,547L 98,549L 97,551L 96,553L 95,555L 94.334,557.668L 94,559L 94,573L 95,576L 96,578L 97.334,580L 98,581L 99,582L 100,583L 101,584L 102,585L 103,586L 104,587L 105,588L 106,588.666L 108,590L 109,590.666L 111,592L 113,593L 118,593L 120,592L 120,588L 119,587L 118,586.4297L 117,585.8389L 116,585.228L 115,584.5984L 114,583.9493L 112.002,582.6066L 110.0215,581.1571L 109.0654,580.3618L 108.146,579.5276L 107.269,578.6576L 105.6064,576.852L 104.1396,574.909L 102.9111,572.7694L 102.4567,571.54L 101.7557,568.8974L 101.6258,567.4291L 101.5903,564.4394L 101.9695,561.4316L 102.6783,558.5381L 103.6294,555.8291L 104.1948,554.582L 104.7783,553.3926L 105.9657,551.1194L 107.2057,549.0178L 107.8768,548.0089L 109.2754,546L 110.77,544L 112.3491,542L 114,540L 114.8145,539L 115.6476,538L 117.3593,536.002L 119.1671,534.0215L 121.0636,532.1094L 123.0191,530.3438L 125.0037,528.7539L 126,528L 128,526.1074L 130,524.3438L 132,522.7539L 133,522L 135,520.3223L 137,518.752L 138,518L 139,517.2344L 141,515.7344L 142,515L 143.0176,514.2437L 144.0537,513.5205L 146.1719,512.1963L 148.377,511.2427L 150.624,510.8894L 151.7314,511.0519L 153.9019,511.6191L 155.9824,512.5295L 158,513.5898L 160,514.7539L 162,516L 163,516.5L 165,517.502L 167,518.5195L 169,519.5898L 171,520.7539L 173,522L 175,523L 177,524L 179,525L 181,526L 183,527L 185,528L 187,529L 189,530L 191,531L 193,532L 201,532L 202,531L 202,525L 201,524L 200,523L 198,522L 196,521L 194,520L 192,519L 190,518L 188,517L 186,516L 184,515L 182,514L 181,513.5L 179,512.498L 177,511.4805L 175,510.4102L 173,509.2461L 171,508L 170,507.4941L 169.0059,506.9756L 168.0332,506.4163L 167.1177,505.7888L 166.322,505.0547L 165.1023,503.3749L 165.1902,500.487L 166.3431,498.7919L 168.0624,497.3868L 170.0054,496.158L 172,495L 173,494.376L 175,493.1611L 177,492L 178,491.376L 180,490.1611L 182,489L 183,488L 184,487L 184,483L 183,482L 178,482L 176,483L 174,484L 173,484.624L 171,485.8389L 169,487L 168,487.624L 166,488.8389L 164,490L 163,490.624L 161,491.8389L 159,493L 157.9824,493.6245L 156.9463,494.1868L 155.8872,494.6536L 153.7256,495.3452L 151.5,495.4927L 150.387,495.276L 148.1926,494.608L 146.0706,493.5643L 144.0168,492.3194L 142,491L 141,490.4297L 140,489.8389L 138,488.6172L 136,487.3271L 135,486.6636L 133,485.334L 131,484L 130,483.334L 128,482L 127,481.334L 126,480.667L 124,479.3257L 122,477.9507L 120,476.5073L 118,475L 116,473.5156L 114,472L 112,470.5156L 110,469L 108,467.5156L 107,466.7578L 105,465.2314L 103,463.6509L 101,462L 99,460.4224L 97,458.7556L 95,457L 94,456.1855L 93,455.3524L 91,453.6407L 89,451.8329L 87,449.9365L 85,447.9815L 83,446L 81.1074,444.4192L 79.3438,442.7366L 77.7539,440.9302L 77,440L 75.002,438L 73.0215,436L 71.1094,434L 69.3438,432L 67.7539,430L 67,429L 66,428L 61,428L 59,429L 58,431L 58,435L 59,437L 60.9785,439L 62.8906,441L 64.6563,443L 66.2461,445L 67,446L 68,447L 69,448L 70,449L 71,450L 72,451L 73,452L 74,453L 75,454L 76,455L 77,456Z" style="fill:rgb(3,3,3);"/>
<path d="M 134,297L 135,296L 136,295L 136,290L 135,288L 129,288L 127,289L 126,290L 125,291L 125,294L 126,296L 127,297Z" style="fill:rgb(3,3,3);"/>
<path d="M 131,598L 133,597L 133,594L 132,593L 131,592L 127,592L 126,593L 126,597L 127,598Z" style="fill:rgb(3,3,3);"/>
<path d="M 142,595L 142,597L 143.334,597.666L 146,599L 147.334,599.666L 148.6025,600.3008L 149.8206,600.9143L 152.1978,602.1343L 153.3436,602.7677L 155.5746,604.1075L 156.5929,604.8717L 158.4746,606.5388L 160.0286,608.5127L 161.2538,610.8049L 161.7305,612.0729L 162.5941,614.6664L 163.3245,617.3279L 164,620L 164.4297,621.1406L 165.248,623.5039L 166,626L 167,629L 168,631L 169,631L 169.002,629.3789L 169.0117,627.6484L 169.0391,625.8574L 169.1523,622.2539L 169.4287,618.7656L 169.6885,617.1934L 170.3599,614.2686L 170.8665,613.0376L 172.0914,610.8215L 173.7562,609.0876L 175.8319,607.7981L 178.1974,606.8889L 180.7168,606.2603L 182,606L 183.3906,605.5781L 186.1055,604.8242L 188.7148,604.2461L 190,604L 191.2344,603.7344L 193.7344,603.2344L 195,603L 196,602L 196,601L 194.7344,600.7656L 192.2344,600.2656L 191,600L 188.4658,599.5054L 185.9023,598.9219L 183.2959,598.1958L 182.0122,597.7454L 179.5278,596.739L 178.3887,596.1177L 176.249,594.7273L 174.4209,593.0137L 173.691,591.9803L 172.4154,589.7546L 171.4719,587.2405L 170.7939,584.4492L 170.3467,581.3102L 170.1094,577.7813L 170.0215,573.957L 170.002,569.9961L 170,568L 169,566L 168,566L 167,567L 166.334,569.668L 166,571L 165.4648,573.5898L 164.7988,576.252L 164,579L 163.6624,580.3247L 162.9675,582.937L 162.1995,585.4204L 161.7383,586.542L 160.6906,588.6252L 159.3411,590.3843L 158.4697,591.1069L 156.5154,592.4082L 154.1605,593.428L 151.4482,594.1729L 148.4336,594.6484L 145.2383,594.8926Z" style="fill:rgb(3,3,3);"/>
<path d="M 157,293L 158.4688,292.7344L 161.4688,292.2344L 163,292L 164.3633,291.752L 167.1406,291.3223L 170,291L 171.3633,290.752L 174.1406,290.3223L 177,290L 178.5039,289.752L 181.6445,289.3223L 185,289L 186.5078,288.7539L 189.6836,288.3418L 193.1758,288.0879L 195,288L 196.5078,287.7539L 199.6875,287.3438L 203.2148,287.1074L 207,287L 208.5078,286.7539L 211.6836,286.3418L 215.1758,286.0879L 217,286L 218,285L 219,284L 219,279L 218,278L 217,277L 215.7344,276.7656L 213.2344,276.2656L 212,276L 206,276L 204.4922,276.2461L 201.3125,276.6563L 197.7852,276.8926L 194,277L 192.4922,277.2461L 189.3164,277.6582L 185.8242,277.9121L 184,278L 182.4961,278.248L 179.3555,278.6777L 176,279L 174.6367,279.248L 171.8594,279.6777L 169,280L 167.6367,280.248L 164.8594,280.6777L 162,281L 160.5313,281.2656L 157.5313,281.7656L 156,282L 154.7656,282.2656L 152.2656,282.7656L 151,283L 149,284L 148,285L 147,286L 146,287L 146,289L 147,292L 148,293Z" style="fill:rgb(3,3,3);"/>
<path d="M 171,401L 174,402L 178,402L 179.4688,401.7344L 182.4688,401.2344L 184,401L 185.2344,400.7344L 187.7344,400.2344L 189,400L 190.2344,399.7344L 192.7344,399.2344L 194,399L 196.6367,398.3457L 199.2051,397.7471L 201.7344,397.2344L 204.4688,396.7344L 207.4688,396.2344L 209,396L 211.6367,395.3457L 214.2051,394.7471L 216.7344,394.2344L 218,394L 219.2344,393.7344L 221.7344,393.2344L 223,393L 224.2344,392.7344L 226.7344,392.2344L 228,392L 229.2344,391.7344L 231.7344,391.2344L 233,391L 235.6367,390.3457L 238.2051,389.7471L 240.7344,389.2344L 242,389L 243.2344,388.7344L 245.7344,388.2344L 247,388L 248.2344,387.7344L 250.7344,387.2344L 252,387L 254.6367,386.3457L 257.2051,385.7471L 259.7344,385.2344L 261,385L 262.2344,384.7344L 264.7344,384.2344L 266,384L 267.2344,383.7344L 269.7344,383.2344L 271,383L 272.2344,382.7344L 274.7344,382.2344L 276,382L 278.6367,381.3457L 281.2051,380.7471L 283.7344,380.2344L 285,380L 286.2344,379.7344L 288.7344,379.2344L 290,379L 291.2344,378.7344L 293.7344,378.2344L 295,378L 296.332,377.666L 299,377L 300,376L 300,374L 299,371.5313L 298,369L 297,366.8242L 296,364.4922L 295,362L 294,359.8242L 293,357.4922L 292,355L 291,352.8242L 290,350.4922L 289,348L 288,345.8242L 287,343.4922L 286,341L 285,338.9609L 284,336.8203L 283,334.4922L 282,332L 281,329.5313L 280,327L 279,324.8242L 278,322.4922L 277,320L 276,317.9609L 275,315.8203L 274,313.4922L 273,311L 272,308.8242L 271,306.4922L 270,304L 269,301.5313L 268,299L 267,297L 266,295L 265,293L 264,291L 263,289L 262,287L 261,286L 260,285L 259,284L 258,283.334L 256,282L 254,281L 252,280L 249.332,279.334L 248,279L 241,279L 239.668,279.334L 237,280L 235,281L 233,282L 231,283L 230,284L 229,285L 228,286L 227,287L 226,288L 225.4297,289L 224.248,291L 223,293L 222.4297,294L 221.248,296L 220,298L 219.4297,299L 218.248,301L 217,303L 216.4824,304L 215.4102,306L 214.2461,308L 213,310L 212.4297,311L 211.248,313L 210,315L 209.4297,316L 208.248,318L 207,320L 206.4824,321L 205.4102,323L 204.2461,325L 203,327L 202.4297,328L 201.248,330L 200,332L 199.4824,333L 198.4102,335L 197.2461,337L 196,339L 195.4297,340L 194.248,342L 193,344L 192.4824,345L 191.4102,347L 190.2461,349L 189,351L 188.4297,352L 187.248,354L 186,356L 185.4824,357L 184.4102,359L 183.2461,361L 182,363L 181.4824,364L 180.4102,366L 179.2461,368L 178,370L 177.4297,371L 176.248,373L 175,375L 174.498,376L 173.4805,378L 172.4102,380L 171.2461,382L 170,384L 169,386L 168,388L 167,390L 166,392L 166,397L 167,398L 168,399L 169,400Z" style="fill:rgb(3,3,3);"/>
<path d="M 252,598L 253.5078,597.7539L 256.6836,597.3418L 260.1758,597.0879L 262,597L 263.5078,596.7539L 266.6836,596.3418L 270.1758,596.0879L 272,596L 273.4453,595.7539L 276.3945,595.3418L 279.4492,595.0879L 281,595L 282.5039,594.752L 285.6445,594.3223L 289,594L 290.3633,593.752L 293.1406,593.3223L 296,593L 297.3633,592.752L 300.1406,592.3223L 303,592L 304.3633,591.752L 307.1406,591.3223L 310,591L 311.3633,590.752L 314.1406,590.3223L 317,590L 318.4688,589.7344L 321.4688,589.2344L 323,589L 324.4688,588.7344L 327.4688,588.2344L 329,588L 330.4688,587.7344L 333.4688,587.2344L 335,587L 336.4688,586.7344L 339.4688,586.2344L 341,586L 342.2344,585.7344L 344.7344,585.2344L 347.4688,584.7344L 350.4688,584.2344L 352,584L 353.332,583.666L 356,583L 356.5703,582L 357.752,580L 359,578L 359.5176,577L 360.5898,575L 361.7539,573L 363,571L 363.5176,570L 364.5898,568L 365.7539,566L 367,564L 368,562L 369,560L 370,558L 371,556L 371,542L 370,539L 369,536L 368,533L 367.5,531.7461L 366.5,529.1582L 365.5,526.4121L 365,525L 364,522.8242L 363,520.4922L 362,518L 361,515.8242L 360,513.4922L 359,511L 358,508.8242L 357,506.4922L 356,504L 355,501.5313L 354,499L 353,496.9609L 352,494.8203L 351,492.4922L 350,490L 349,487.5313L 348,485L 347,482.8242L 346,480.4922L 345,478L 344,475.8242L 343,473.4922L 342,471L 341,468.8242L 340,466.4922L 339,464L 338,461.8242L 337,459.4922L 336,457L 335,454.8242L 334,452.4922L 333,450L 332,447.9609L 331,445.8203L 330,443.4922L 329,441L 328,438.5313L 327,436L 326,433.9609L 325,431.8203L 324,429.4922L 323,427L 322,424.8242L 321,422.4922L 320,420L 319,417.5313L 318,415L 317,412.8242L 316,410.4922L 315,408L 314,405.9609L 313,403.8203L 312,401.4922L 311,399L 305,399L 303.7656,399.2656L 301.2656,399.7656L 300,400L 298.7656,400.2656L 296.2656,400.7656L 295,401L 293.7656,401.2656L 291.2656,401.7656L 290,402L 288.7656,402.2656L 286.2656,402.7656L 285,403L 282.3633,403.6543L 279.7949,404.2529L 277.2656,404.7656L 276,405L 274.7656,405.2656L 272.2656,405.7656L 271,406L 269.7656,406.2656L 267.2656,406.7656L 266,407L 264.7656,407.2656L 262.2656,407.7656L 261,408L 258.3633,408.6543L 255.7949,409.2529L 253.2656,409.7656L 252,410L 250.7656,410.2656L 248.2656,410.7656L 247,411L 245.7656,411.2656L 243.2656,411.7656L 242,412L 240.7656,412.2656L 238.2656,412.7656L 237,413L 235.7656,413.2656L 233.2656,413.7656L 232,414L 230.7656,414.2656L 228.2656,414.7656L 227,415L 224.3633,415.6543L 221.7949,416.2529L 219.2656,416.7656L 218,417L 216.7656,417.2656L 214.2656,417.7656L 213,418L 211.668,418.334L 209,419L 206,420L 203,421L 201,422L 199,423L 197,424L 195,425.6777L 193,427.248L 192,428L 191,429L 190,430L 188.5156,432L 187,434L 186.334,435L 185,437L 184,440L 183,443L 183,451L 184,454L 185,457L 186,459.1758L 187,461.5078L 188,464L 189,466.4688L 190,469L 191,471.1758L 192,473.5078L 193,476L 194,478.1758L 195,480.5078L 196,483L 197,485.1758L 198,487.5078L 199,490L 200,492.1758L 201,494.5078L 202,497L 203,499.1758L 204,501.5078L 205,504L 206,506.1758L 207,508.5078L 208,511L 209,513.1758L 210,515.5078L 211,518L 212,520.1758L 213,522.5078L 214,525L 215,527.1758L 216,529.5078L 217,532L 218,534.1758L 219,536.5078L 220,539L 221,541.4688L 222,544L 223,546.0391L 224,548.1797L 225,550.5078L 226,553L 227,555.1758L 228,557.5078L 229,560L 230,562.1758L 231,564.5078L 232,567L 233,569.1758L 234,571.5078L 235,574L 236,576.1758L 237,578.5078L 238,581L 239,583.1758L 240,585.5078L 241,588L 242,590.1758L 243,592.5078L 244,595L 245,597L 246,598Z" style="fill:rgb(3,3,3);"/>
<path d="M 224,607L 225.5078,606.7539L 228.6875,606.3438L 232.2188,606.1094L 236.043,606.0215L 240.0039,606.002L 242,606L 243.3633,605.752L 246.1406,605.3223L 249,605L 249,603L 248,601L 247,599L 246,598L 237,598L 235.4922,598.2461L 232.3125,598.6563L 228.7813,598.8906L 224.957,598.9785L 220.9961,598.998L 217.5,599L 216,599L 214.4922,599.2461L 211.3438,599.6563L 208,599.8906L 204.6484,599.9805L 203,600L 202,602L 202,604L 203,606L 204,607Z" style="fill:rgb(3,3,3);"/>
<path d="M 249,605L 249,606L 250,609L 251,611.1758L 252,613.5078L 253,616L 254,618.1758L 255,620.5078L 256,623L 257,625.1758L 258,627.5078L 259,630L 260,632.4688L 261,635L 262,637.0391L 263,639.1797L 264,641.5078L 265,644L 266,646.1758L 267,648.5078L 268,651L 269,653.0391L 270,655.1797L 271,657.5078L 272,660L 273.334,662L 274,663L 275,664L 276,665L 277,666L 278,667L 279,667.666L 281,669L 283,670L 286,671L 296,671L 299,670L 302,669L 304,667.666L 305,667L 306,666L 307,665L 308,664L 309,663L 309.666,662L 311,660L 311.666,659L 313,657L 313.666,656L 315,654L 315.5703,653L 316.752,651L 318,649L 318.502,648L 319.5195,646L 320.5898,644L 321.7539,642L 323,640L 323.5703,639L 324.752,637L 326,635L 326.5176,634L 327.5898,632L 328.7539,630L 330,628L 330.5703,627L 331.752,625L 333,623L 333.5176,622L 334.5898,620L 335.7539,618L 337,616L 337.5703,615L 338.752,613L 340,611L 340.5176,610L 341.5898,608L 342.7539,606L 344,604L 344.5703,603L 345.752,601L 347,599L 348,597L 349,595L 350,593L 350,591L 348,591L 346.5313,591.2656L 343.5313,591.7656L 342,592L 340.7656,592.2656L 338.2656,592.7656L 335.5313,593.2656L 332.5313,593.7656L 331,594L 329.5313,594.2656L 326.5313,594.7656L 325,595L 323.5313,595.2656L 320.5313,595.7656L 319,596L 317.5313,596.2656L 314.5313,596.7656L 313,597L 311.6367,597.248L 308.8594,597.6777L 306,598L 304.5313,598.2656L 301.5313,598.7656L 300,599L 298.4961,599.248L 295.3555,599.6777L 292,600L 290.4961,600.248L 287.3555,600.6777L 284,601L 282.5547,601.2461L 279.6055,601.6582L 276.5508,601.9121L 275,602L 273.5547,602.2461L 270.6055,602.6582L 267.5508,602.9121L 266,603L 264.5078,603.2461L 261.4375,603.6563L 258.2383,603.8926L 255,604L 253.5313,604.2656L 250.5313,604.7656Z" style="fill:rgb(3,3,3);"/>
<path d="M 323,372L 324.2344,371.7344L 326.7344,371.2344L 328,371L 329.2344,370.7344L 331.7344,370.2344L 333,370L 334.2344,369.7344L 336.7344,369.2344L 338,369L 340.6367,368.3457L 343.2051,367.7471L 345.7344,367.2344L 347,367L 348.2344,366.7344L 350.7344,366.2344L 352,366L 353.2344,365.7344L 355.7344,365.2344L 357,365L 358.2344,364.7344L 360.7344,364.2344L 362,364L 364.6367,363.3457L 367.2051,362.7471L 369.7344,362.2344L 371,362L 372.2344,361.7344L 374.7344,361.2344L 376,361L 378.6367,360.3457L 381.2051,359.7471L 383.7344,359.2344L 385,359L 386.2344,358.7344L 388.7344,358.2344L 390,358L 391.2344,357.7344L 393.7344,357.2344L 395,357L 397.6367,356.3457L 400.2051,355.7471L 402.7344,355.2344L 404,355L 405.2344,354.7344L 407.7344,354.2344L 409,354L 410.2344,353.7344L 412.7344,353.2344L 414,353L 416.6367,352.3457L 419.2051,351.7471L 421.7344,351.2344L 423,351L 424.332,350.666L 427,350L 428.332,349.666L 431,349L 434,348L 436,347L 438,346L 439,345L 440,344L 441,343L 442,342L 443,341L 444,340L 444.5703,339L 445.752,337L 447,335L 447.5703,334L 448.752,332L 450,330L 450.5176,329L 451.5898,327L 452.7539,325L 454,323L 454.5703,322L 455.752,320L 457,318L 457.5176,317L 458.5898,315L 459.7539,313L 461,311L 461.5176,310L 462.5898,308L 463.7539,306L 465,304L 465.5703,303L 466.752,301L 468,299L 468.5176,298L 469.5898,296L 470.7539,294L 472,292L 472.5176,291L 473.5898,289L 474.7539,287L 476,285L 476.5703,284L 477.752,282L 479,280L 479.502,279L 480.5195,277L 481.5898,275L 482.7539,273L 484,271L 484.5176,270L 485.5898,268L 486.7539,266L 488,264L 488.5176,263L 489.5898,261L 490.7539,259L 492,257L 492.5703,256L 493.752,254L 495,252L 495.5176,251L 496.5898,249L 497.7539,247L 499,245L 500,243L 501,241L 502,239L 503,237L 504,234L 504,225L 503.666,223.668L 503,221L 502,219L 500.666,217L 500,216L 499,215L 498,214L 497,213L 496,212L 495,211.334L 493,210L 491,209L 489,208L 486.332,207.334L 485,207L 479,207L 477.7656,207.2656L 475.2656,207.7656L 474,208L 472.7656,208.2656L 470.2656,208.7656L 467.5313,209.2656L 464.5313,209.7656L 463,210L 460.3633,210.6543L 457.7949,211.2529L 455.2656,211.7656L 454,212L 451.3027,212.6514L 448.5,213.25L 445.5293,213.7646L 444,214L 442.668,214.334L 440,215L 437.3633,215.6543L 434.7949,216.2529L 432.2656,216.7656L 431,217L 429.7656,217.2656L 427.2656,217.7656L 426,218L 424.7656,218.2656L 422.2656,218.7656L 421,219L 418.3633,219.6543L 415.7949,220.2529L 413.2656,220.7656L 412,221L 410.7656,221.2656L 408.2656,221.7656L 407,222L 405.7656,222.2656L 403.2656,222.7656L 402,223L 400.7656,223.2656L 398.2656,223.7656L 397,224L 394.3633,224.6543L 391.7949,225.2529L 389.2656,225.7656L 388,226L 386.7656,226.2656L 384.2656,226.7656L 383,227L 381.7656,227.2656L 379.2656,227.7656L 378,228L 375.3633,228.6543L 372.7949,229.2529L 370.2656,229.7656L 367.5313,230.2656L 364.5313,230.7656L 363,231L 360.3633,231.6543L 357.7949,232.2529L 355.2656,232.7656L 354,233L 352.7656,233.2656L 350.2656,233.7656L 349,234L 347.7656,234.2656L 345.2656,234.7656L 344,235L 342.7656,235.2656L 340.2656,235.7656L 339,236L 337.7656,236.2656L 335.2656,236.7656L 334,237L 331.3027,237.6514L 328.5,238.25L 325.5293,238.7646L 324,239L 321.3633,239.6543L 318.7949,240.2529L 316.2656,240.7656L 315,241L 313.7656,241.2656L 311.2656,241.7656L 310,242L 308.7656,242.2656L 306.2656,242.7656L 305,243L 302.3633,243.6543L 299.7949,244.2529L 297.2656,244.7656L 296,245L 293,246L 290,247L 288,248.334L 287,249L 286,250L 285,251L 284,252L 283,253L 282,254L 281,256L 280,258L 279,260L 278.334,262.668L 278,264L 278,275L 278.2656,276.2344L 278.7656,278.7344L 279,280L 280,283L 281,286L 282,288.1758L 283,290.5078L 284,293L 285,295.4688L 286,298L 287,300.1758L 288,302.5078L 289,305L 290,307.1758L 291,309.5078L 292,312L 293,314.1758L 294,316.5078L 295,319L 296,321.1758L 297,323.5078L 298,326L 299,328.1758L 300,330.5078L 301,333L 302,335.1758L 303,337.5078L 304,340L 305,342.4688L 306,345L 307,347.0391L 308,349.1797L 309,351.5078L 310,354L 311,356.1758L 312,358.5078L 313,361L 314,363.4688L 315,366L 316,368L 317,370L 318,372Z" style="fill:rgb(3,3,3);"/>
<path d="M 328,394L 328,397L 329,399.0391L 330,401.1797L 331,403.5078L 332,406L 333,408.1758L 334,410.5078L 335,413L 336,415.0391L 337,417.1797L 338,419.5078L 339,422L 340,424.1758L 341,426.5078L 342,429L 343,431.0391L 344,433.1797L 345,435.5078L 346,438L 347,440.1758L 348,442.5078L 349,445L 350,447.1758L 351,449.5078L 352,452L 353,454.1758L 354,456.5078L 355,459L 356,461.0391L 357,463.1797L 358,465.5078L 359,468L 360,470.1758L 361,472.5078L 362,475L 363,477.1758L 364,479.5078L 365,482L 366,484.0391L 367,486.1797L 368,488.5078L 369,491L 370,493.1758L 371,495.5078L 372,498L 373,500L 374,502L 375,504L 376.334,506L 377,507L 378,508L 379,509L 380,510L 381,511L 382,512L 383,513L 384,514L 385,515L 386,515.666L 388,517L 390,518L 392,519L 394,520L 396,521L 398,522L 401,523L 404,524L 406.668,524.666L 408,525L 417,525L 418.2344,524.7344L 420.7344,524.2344L 422,524L 423.2344,523.7344L 425.7344,523.2344L 427,523L 429.6367,522.3457L 432.2051,521.7471L 434.7344,521.2344L 436,521L 437.2344,520.7344L 439.7344,520.2344L 441,520L 442.2344,519.7344L 444.7344,519.2344L 446,519L 447.2344,518.7344L 449.7344,518.2344L 451,518L 452.2344,517.7344L 454.7344,517.2344L 456,517L 458.6973,516.3486L 461.5,515.75L 464.4707,515.2354L 466,515L 468.6367,514.3457L 471.2051,513.7471L 473.7344,513.2344L 475,513L 476.2344,512.7344L 478.7344,512.2344L 480,512L 481.2344,511.7344L 483.7344,511.2344L 485,511L 487.6367,510.3457L 490.2051,509.7471L 492.7344,509.2344L 494,509L 495.2344,508.7344L 497.7344,508.2344L 499,508L 501.6367,507.3457L 504.2051,506.7471L 506.7344,506.2344L 508,506L 509.2344,505.7344L 511.7344,505.2344L 513,505L 514.2344,504.7344L 516.7344,504.2344L 518,504L 519.332,503.666L 522,503L 522,499L 521,496.8242L 520,494.4922L 519,492L 518,489.8242L 517,487.4922L 516,485L 515,482.8242L 514,480.4922L 513,478L 512,475.8242L 511,473.4922L 510,471L 509,468.8242L 508,466.4922L 507,464L 506,461.5313L 505,459L 504,456.9609L 503,454.8203L 502,452.4922L 501,450L 500,447.8242L 499,445.4922L 498,443L 497,440.8242L 496,438.4922L 495,436L 494,433.5313L 493,431L 492,428.9609L 491,426.8203L 490,424.4922L 489,422L 488,419.9609L 487,417.8203L 486,415.4922L 485,413L 484,410.8242L 483,408.4922L 482,406L 481,403.5313L 480,401L 479,399L 478,397L 477,395L 475.666,393L 475,392L 474,391L 473,390L 472,389L 471,388L 470,387L 469,386L 468,385L 467,384.334L 465,383L 464,382.334L 462,381L 460,380L 458,379L 456,378L 454,377L 452,376L 449,375L 446.332,374.334L 445,374L 443.7344,373.7656L 441.2344,373.2656L 440,373L 431,373L 429.5313,373.2656L 426.5313,373.7656L 425,374L 423.7656,374.2656L 421.2656,374.7656L 420,375L 418.7656,375.2656L 416.2656,375.7656L 415,376L 413.7656,376.2656L 411.2656,376.7656L 410,377L 407.3633,377.6543L 404.7949,378.2529L 402.2656,378.7656L 399.5313,379.2656L 396.5313,379.7656L 395,380L 393.7656,380.2656L 391.2656,380.7656L 390,381L 387.3633,381.6543L 384.7949,382.2529L 382.2656,382.7656L 381,383L 379.7656,383.2656L 377.2656,383.7656L 376,384L 374.7656,384.2656L 372.2656,384.7656L 371,385L 368.3633,385.6543L 365.7949,386.2529L 363.2656,386.7656L 362,387L 360.7656,387.2656L 358.2656,387.7656L 357,388L 355.7656,388.2656L 353.2656,388.7656L 352,389L 350.7656,389.2656L 348.2656,389.7656L 347,390L 345.7656,390.2656L 343.2656,390.7656L 342,391L 339.3027,391.6514L 336.5,392.25L 333.5293,392.7646L 332,393L 330.668,393.334Z" style="fill:rgb(3,3,3);"/>
<path d="M 341,690L 343,691L 346,692L 353,692L 355.6367,691.3457L 358.2051,690.7471L 360.7344,690.2344L 362,690L 363.2344,689.7344L 365.7344,689.2344L 367,689L 368.2344,688.7344L 370.7344,688.2344L 372,688L 374.6367,687.3457L 377.2051,686.7471L 379.7344,686.2344L 381,686L 382.2344,685.7344L 384.7344,685.2344L 386,685L 387.2344,684.7344L 389.7344,684.2344L 391,684L 393.6367,683.3457L 396.2051,682.7471L 398.7344,682.2344L 400,682L 401.2344,681.7344L 403.7344,681.2344L 405,681L 406.2344,680.7344L 408.7344,680.2344L 410,680L 411.2344,679.7344L 413.7344,679.2344L 415,679L 417.6973,678.3486L 420.5,677.75L 423.4707,677.2354L 425,677L 427.6367,676.3457L 430.2051,675.7471L 432.7344,675.2344L 434,675L 435.2344,674.7344L 437.7344,674.2344L 439,674L 440.2344,673.7344L 442.7344,673.2344L 444,673L 446.6367,672.3457L 449.2051,671.7471L 451.7344,671.2344L 453,671L 455.6973,670.3486L 458.5,669.75L 461.4707,669.2354L 463,669L 465.6367,668.3457L 468.2051,667.7471L 470.7344,667.2344L 472,667L 473.2344,666.7344L 475.7344,666.2344L 477,666L 479.6367,665.3457L 482.2051,664.7471L 484.7344,664.2344L 486,664L 487.2344,663.7344L 489.7344,663.2344L 491,663L 493.6367,662.3457L 496.2051,661.7471L 498.7344,661.2344L 500,661L 501.2344,660.7344L 503.7344,660.2344L 505,660L 506.2344,659.7344L 508.7344,659.2344L 510,659L 512.6367,658.3457L 515.2051,657.7471L 517.7344,657.2344L 519,657L 520.2344,656.7344L 522.7344,656.2344L 524,656L 525.2344,655.7344L 527.7344,655.2344L 529,655L 531.6367,654.3457L 534.2051,653.7471L 536.7344,653.2344L 538,653L 539.2344,652.7344L 541.7344,652.2344L 543,652L 544.2344,651.7344L 546.7344,651.2344L 548,651L 549.332,650.666L 552,650L 555,649L 558,648L 560,646.666L 561,646L 562,645L 563,644L 564,643L 565,642L 566,641L 567,639L 568,637L 569,635L 570,632L 570.666,629.332L 571,628L 571,619L 570.666,617.668L 570,615L 569.666,613.668L 569,611L 568,608L 567,605.5313L 566,603L 565,600.5313L 564,598L 563,595.5313L 562,593L 561,590.8242L 560,588.4922L 559,586L 558,583.5313L 557,581L 556,578.9609L 555,576.8203L 554,574.4922L 553,572L 552,569.5313L 551,567L 550,564.9609L 549,562.8203L 548,560.4922L 547,558L 546,555.5313L 545,553L 544,550.8242L 543,548.4922L 542,546L 541,544L 540,542L 539,541L 537,541L 534,542L 531,543L 528,544L 525,545L 522,546L 519,547L 516,548L 513,549L 510,550L 508.5,550.5L 505.5039,551.498L 502.5313,552.4805L 499.6172,553.4102L 496.7813,554.2461L 494,555L 492.5273,555.4824L 489.6172,556.4102L 486.7813,557.2461L 484,558L 482.5273,558.4824L 479.6172,559.4102L 476.7813,560.2461L 474,561L 472.5859,561.4297L 471.1816,561.8389L 468.4023,562.6172L 465.6816,563.3271L 463,564L 461.5859,564.4297L 458.7773,565.248L 456,566L 454.5859,566.4297L 453.1816,566.8389L 450.4023,567.6172L 447.6816,568.3271L 446.3408,568.6636L 443.668,569.334L 441,570L 439.5859,570.4297L 438.1816,570.8389L 435.4023,571.6172L 432.6816,572.3271L 431.3408,572.6636L 428.668,573.334L 426,574L 424.668,574.334L 422,575L 420.668,575.334L 418,576L 416.668,576.334L 414,577L 412.668,577.334L 410,578L 407.3633,578.6543L 404.7949,579.2529L 402.2656,579.7656L 401,580L 398.3633,580.6543L 395.7949,581.2529L 393.2656,581.7656L 392,582L 389.3633,582.6543L 386.7949,583.2529L 384.2656,583.7656L 383,584L 380,585L 379.334,586L 378,588L 377.4297,589L 376.248,591L 375,593L 374.4297,594L 373.248,596L 372,598L 371.4297,599L 370.248,601L 369,603L 368.4824,604L 367.4102,606L 366.2461,608L 365,610L 364.4297,611L 363.248,613L 362,615L 361.4297,616L 360.248,618L 359,620L 358.4824,621L 357.4102,623L 356.2461,625L 355,627L 354.4297,628L 353.248,630L 352,632L 351.498,633L 350.4805,635L 349.4102,637L 348.2461,639L 347,641L 346.4297,642L 345.248,644L 344,646L 343.4824,647L 342.4102,649L 341.2461,651L 340,653L 339.4297,654L 338.248,656L 337,658L 336,660L 335,662L 334,664L 333,666L 332,668L 332,678L 333,681L 334,683L 335.334,685L 336,686L 337,687L 338,688L 339,689Z" style="fill:rgb(3,3,3);"/>
<path d="M 391,576L 392.332,575.666L 395,575L 396.332,574.666L 399,574L 400.332,573.666L 403,573L 405.6367,572.3457L 408.2051,571.7471L 410.7344,571.2344L 412,571L 413.332,570.666L 416,570L 417.332,569.666L 420,569L 421.332,568.666L 424,568L 425.332,567.666L 428,567L 429.332,566.666L 432,566L 433.332,565.666L 436,565L 437.4141,564.5703L 438.8184,564.1611L 441.5977,563.3828L 444.3184,562.6729L 445.6592,562.3364L 448.332,561.666L 451,561L 452.4141,560.5703L 453.8184,560.1611L 456.5977,559.3828L 459.3184,558.6729L 462,558L 463.4141,557.5703L 466.2227,556.752L 469,556L 470.4141,555.5703L 473.2227,554.752L 476,554L 477.4141,553.5703L 480.2227,552.752L 483,552L 484.5,551.5L 487.4961,550.502L 490.4688,549.5195L 493.3828,548.5898L 496.2188,547.7539L 499,547L 502,546L 505,545L 506.5,544.5L 509.4961,543.502L 512.4688,542.5195L 515.3828,541.5898L 518.2188,540.7539L 521,540L 524,539L 527,538L 530,537L 533,536L 535,535L 536,534L 536,532L 535,529.9609L 534,527.8203L 533,525.4922L 532,523L 530,523L 528.7656,523.2656L 526.2656,523.7656L 525,524L 523.7656,524.2656L 521.2656,524.7656L 520,525L 518.7656,525.2656L 516.2656,525.7656L 515,526L 512.3633,526.6543L 509.7949,527.2529L 507.2656,527.7656L 506,528L 504.7656,528.2656L 502.2656,528.7656L 501,529L 499.7656,529.2656L 497.2656,529.7656L 496,530L 493.3633,530.6543L 490.7949,531.2529L 488.2656,531.7656L 487,532L 484.3027,532.6514L 481.5,533.25L 478.5293,533.7646L 477,534L 474.3633,534.6543L 471.7949,535.2529L 469.2656,535.7656L 468,536L 465.3027,536.6514L 462.5,537.25L 459.5293,537.7646L 458,538L 455.3633,538.6543L 452.7949,539.2529L 450.2656,539.7656L 449,540L 446.3633,540.6543L 443.7949,541.2529L 441.2656,541.7656L 440,542L 438.7656,542.2656L 436.2656,542.7656L 435,543L 433.7656,543.2656L 431.2656,543.7656L 430,544L 427.3633,544.6543L 424.7949,545.2529L 422.2656,545.7656L 421,546L 419.7656,546.2656L 417.2656,546.7656L 416,547L 414.668,547.334L 412,548L 410.668,548.334L 408,549L 405.5313,550L 403,551L 402,552L 401,553L 400,554L 399,555L 398,556L 397,557L 396,558L 395.334,559L 394,561L 393.4297,562L 392.248,564L 391,566L 390.4824,567L 389.4102,569L 388.2461,571L 387,573L 386,575L 386,576Z" style="fill:rgb(3,3,3);"/>
<path d="" style="fill:rgb(3,3,3);"/>
<path d="M 544.2344,498.7344L 546.7344,498.2344L 548,498L 550.6367,497.3457L 553.2051,496.7471L 555.7344,496.2344L 557,496L 558.2344,495.7344L 560.7344,495.2344L 562,495L 563.2344,494.7344L 565.7344,494.2344L 567,494L 568.2344,493.7344L 570.7344,493.2344L 572,493L 573.2344,492.7344L 575.7344,492.2344L 577,492L 579.6367,491.3457L 582.2051,490.7471L 584.7344,490.2344L 586,490L 587.2344,489.7344L 589.7344,489.2344L 591,489L 592.2344,488.7344L 594.7344,488.2344L 596,488L 598.6367,487.3457L 601.2051,486.7471L 603.7344,486.2344L 606.4688,485.7344L 609.4688,485.2344L 611,485L 613.6367,484.3457L 616.2051,483.7471L 618.7344,483.2344L 620,483L 621.2344,482.7344L 623.7344,482.2344L 625,482L 626.2344,481.7344L 628.7344,481.2344L 630,481L 631.2344,480.7344L 633.7344,480.2344L 635,480L 636.332,479.666L 639,479L 640.332,478.666L 643,478L 646,477L 648,476L 650,475L 652,474L 654,472.666L 655,472L 656,471L 657,470L 658,469L 659,468L 660,467L 661,466L 662,465L 663,463L 664,461L 665,459L 666,457L 666.666,454.332L 667,453L 667,442L 666,439L 665,436L 664,433.8242L 663,431.4922L 662,429L 661,426.8242L 660,424.4922L 659,422L 658,419.9609L 657,417.8203L 656,415.4922L 655,413L 654,410.8242L 653,408.4922L 652,406L 651,403.5313L 650,401L 649,398.8242L 648,396.4922L 647,394L 646,391.9609L 645,389.8203L 644,387.4922L 643,385L 642,382.8242L 641,380.4922L 640,378L 639,375.8242L 638,373.4922L 637,371L 636,368.8242L 635,366.4922L 634,364L 633,361.8242L 632,359.4922L 631,357L 630,354.5313L 629,352L 628,349.8242L 627,347.4922L 626,345L 625,342.8242L 624,340.4922L 623,338L 622,335.8242L 621,333.4922L 620,331L 619,328.8242L 618,326.4922L 617,324L 616,321.9609L 615,319.8203L 614,317.4922L 613,315L 612,312.5313L 611,310L 610,307.8242L 609,305.4922L 608,303L 607,300.8242L 606,298.4922L 605,296L 604,293.9609L 603,291.8203L 602,289.4922L 601,287L 600,284.5313L 599,282L 598,279.8242L 597,277.4922L 596,275L 595,272.8242L 594,270.4922L 593,268L 592,265.8242L 591,263.4922L 590,261L 589,258.8242L 588,256.4922L 587,254L 586,251.8242L 585,249.4922L 584,247L 583,244.9609L 582,242.8203L 581,240.4922L 580,238L 579,235.5313L 578,233L 577,230.8242L 576,228.4922L 575,226L 574,224L 573,222L 572,220L 571,218L 570,216L 569,214L 568,213L 567,212L 566,211L 564,210L 562,209L 560,208L 549,208L 546,209L 544,210.334L 543,211L 542,212L 541,213L 539.5156,215L 538,217L 537.4297,218L 536.248,220L 535,222L 534.4297,223L 533.248,225L 532,227L 531.4824,228L 530.4102,230L 529.2461,232L 528,234L 527.4297,235L 526.248,237L 525,239L 524.4824,240L 523.4102,242L 522.2461,244L 521,246L 520.4824,247L 519.4102,249L 518.2461,251L 517,253L 516.4297,254L 515.248,256L 514,258L 513.4824,259L 512.4102,261L 511.2461,263L 510,265L 509.498,266L 508.4805,268L 507.4102,270L 506.2461,272L 505,274L 504.4297,275L 503.248,277L 502,279L 501.498,280L 500.4805,282L 499.4102,284L 498.2461,286L 497,288L 496.4824,289L 495.4102,291L 494.2461,293L 493,295L 492.4824,296L 491.4102,298L 490.2461,300L 489,302L 488.4824,303L 487.4102,305L 486.2461,307L 485,309L 484.4297,310L 483.248,312L 482,314L 481.4824,315L 480.4102,317L 479.2461,319L 478,321L 477,323L 476,325L 475,327L 474,329L 474,342L 475,345L 476,348L 477,350.1758L 478,352.5078L 479,355L 480,357.1758L 481,359.5078L 482,362L 483,364.4688L 484,367L 485,369.0391L 486,371.1797L 487,373.5078L 488,376L 489,378.1758L 490,380.5078L 491,383L 492,385.1758L 493,387.5078L 494,390L 495,392.4688L 496,395L 497,397.0391L 498,399.1797L 499,401.5078L 500,404L 501,406.1758L 502,408.5078L 503,411L 504,413.4688L 505,416L 506,418.1758L 507,420.5078L 508,423L 509,425.1758L 510,427.5078L 511,430L 512,432.1758L 513,434.5078L 514,437L 515,439.1758L 516,441.5078L 517,444L 518,446.1758L 519,448.5078L 520,451L 521,453.4688L 522,456L 523,458.1758L 524,460.5078L 525,463L 526,465.1758L 527,467.5078L 528,470L 529,472.1758L 530,474.5078L 531,477L 532,479.1758L 533,481.5078L 534,484L 535,486.0391L 536,488.1797L 537,490.5078L 538,493L 539,495.4688L 540,498L 541,499L 543,499Z" style="fill:rgb(3,3,3);"/>
<path d="M 550,519L 550,522L 551,524L 552,526L 553,528L 555,528L 558,527L 561,526L 563.4688,525L 566,524L 567.2539,523.5L 569.8418,522.5L 572.5879,521.5L 574,521L 575.2539,520.5L 577.8418,519.5L 580.5879,518.5L 582,518L 584.4688,517L 587,516L 589.4688,515L 592,514L 594.4688,513L 597,512L 599,511L 601,510L 601,509L 596,509L 593.3633,509.6543L 590.7949,510.2529L 588.2656,510.7656L 587,511L 585.7656,511.2656L 583.2656,511.7656L 582,512L 580.7656,512.2656L 578.2656,512.7656L 577,513L 574.3633,513.6543L 571.7949,514.2529L 569.2656,514.7656L 568,515L 566.7656,515.2656L 564.2656,515.7656L 563,516L 561.7656,516.2656L 559.2656,516.7656L 558,517L 556.668,517.334L 554,518L 552.668,518.334Z" style="fill:rgb(3,3,3);"/>
<path d="M 557,538.1758L 558,540.5078L 559,543L 560,545.1758L 561,547.5078L 562,550L 563,552.1758L 564,554.5078L 565,557L 566,559.1758L 567,561.5078L 568,564L 569,566.1758L 570,568.5078L 571,571L 572,573.1758L 573,575.5078L 574,578L 575,580.0391L 576,582.1797L 577,584.5078L 578,587L 579,589.1758L 580,591.5078L 581,594L 582,596.4688L 583,599L 584,601L 585,603L 586,605L 587,606L 588,607L 589,608L 590,609L 591,610L 593,611L 595,612L 597.668,612.666L 599,613L 602,613L 603.332,612.666L 606,612L 608,611L 610,610L 611,609L 612,608L 613,607L 614,606L 614.666,605L 616,603L 616.5703,602L 617.752,600L 619,598L 619.5703,597L 620.752,595L 622,593L 622.5176,592L 623.5898,590L 624.7539,588L 626,586L 626.5703,585L 627.752,583L 629,581L 629.502,580L 630.5195,578L 631.5898,576L 632.7539,574L 634,572L 634.5176,571L 635.5898,569L 636.7539,567L 638,565L 638.5703,564L 639.752,562L 641,560L 641.502,559L 642.5195,557L 643.5898,555L 644.7539,553L 646,551L 646.5703,550L 647.752,548L 649,546L 649.5703,545L 650.752,543L 652,541L 652.5176,540L 653.5898,538L 654.7539,536L 656,534L 656.5176,533L 657.5898,531L 658.7539,529L 660,527L 660.5703,526L 661.752,524L 663,522L 663.5176,521L 664.5898,519L 665.7539,517L 667,515L 667.5176,514L 668.5898,512L 669.7539,510L 671,508L 672,506L 673,504L 674,502L 675,500L 676,498L 676,497L 675,496L 674,495L 672,494L 668,494L 666.7656,494.2656L 664.2656,494.7656L 663,495L 661.7656,495.2656L 659.2656,495.7656L 658,496L 656.7656,496.2656L 655.5444,496.4712L 654.3317,496.0914L 654.0756,494.6193L 655.0461,493.8166L 657.0085,492.5072L 658.0044,492.0037L 660.0001,491.0001L 661.0001,490.5001L 663,489.5L 664,489L 666,488L 668,487L 670,486L 672,485L 674,484L 676,483L 678,482L 680,481L 681,480.3872L 683,479.1938L 685,478.073L 687,477.019L 689,476L 690,475.376L 692,474.1611L 694,473L 696,471.7744L 698,470.6128L 700,469.5269L 701,469L 702,468.376L 704,467.1611L 706,466L 708,464.666L 709,464L 711,462.666L 712,462L 714,460.666L 715,460L 717,458.666L 718,458L 720,456.666L 721,456L 723,454.666L 724,454L 726,452.4902L 728,451.0449L 730,449.6719L 731,449L 732,448.2344L 734,446.7344L 735,446L 737,444.3223L 739,442.752L 740,442L 741,441.0759L 743,439.3213L 744,438.597L 745,438.0105L 746,437.5846L 748,437.0783L 750,437.271L 752,438.1087L 754,439.4272L 755,440.2136L 757,441.7904L 759,443.4221L 761,445.1666L 763,447L 764,447.666L 766,449L 768,450L 772,450L 773,449L 774,448L 774,442L 773,441L 772,440L 770,438.3928L 768,436.6992L 766,434.8889L 764,433L 763.0461,432.1887L 761.2808,430.4719L 759.9901,428.5371L 759.7509,427.4716L 759.7313,425.3077L 760.5118,423.1383L 761.8056,421.0387L 763.3499,419.0051L 765,417L 765.666,416L 767,414L 767.666,413L 769,411L 770,409L 771,407L 772,405L 773,403L 774,400L 774.2344,398.7344L 774.7344,396.2344L 775,395L 775,387L 774.666,385.668L 774,383L 773,380L 772,378L 771.2344,377L 769.7344,375L 769,374L 768,373L 767,372L 766,371L 765,370L 763,368.5156L 761,367L 759,366L 757,365L 755,364L 750,364L 750,370L 751,370.666L 753,372L 755,373.2148L 756,373.8813L 757.9844,375.2759L 758.9404,376.0259L 759.8589,376.8032L 761.6104,378.4258L 762.397,379.3201L 763.8801,381.2216L 765.1787,383.3657L 766.2517,385.7537L 766.6222,387.0402L 766.8806,388.3503L 767.1699,390.9972L 767.0995,392.3265L 766.7852,394.9468L 766.4823,396.1979L 766.1313,397.4052L 765.3502,399.7339L 764.4328,401.9086L 763.3989,403.9777L 762.8216,404.9871L 762.2185,405.9926L 760.9678,407.999L 759.6323,409.9999L 758.2002,412L 756.6475,414L 755.8231,414.9805L 754.1335,416.8496L 753.2293,417.6221L 752.2828,418.2388L 750.3146,419.1089L 748.2328,419.2129L 746.1205,418.584L 744.0413,417.4248L 742,416L 741,415.334L 740,414.667L 738,413.3257L 736,411.9507L 734,410.5073L 732,409L 731,408.334L 729,407L 728,406.4297L 727,405.8389L 725,404.6172L 723,403.3271L 722,402.6636L 720,401.334L 718,400L 717,399.4297L 716,398.8389L 714,397.6172L 712,396.3271L 710,395L 709,394.4824L 707,393.4102L 705,392.2461L 703,391L 702,390.4297L 700,389.248L 698,388L 697,387.498L 695,386.4805L 693,385.4102L 691,384.2461L 689,383L 687,382L 685,381L 683,380L 682,379.5L 680,378.498L 678,377.4805L 676,376.4102L 674,375.2461L 672,374L 670,373L 668,372L 666,371L 664,370L 662,369L 660.7344,368.5L 658.2344,367.5L 657,367L 654,366L 651,366L 649,367L 648,369L 648,372L 649,374L 650,375L 651,375.5703L 653,376.752L 655,378L 657,379L 659,380L 661,381L 663,382L 665,383L 667,384L 669,385L 670,385.5L 672,386.502L 674,387.5195L 676,388.5898L 678,389.7539L 680,391L 681,391.502L 683,392.5195L 685,393.5898L 687,394.7539L 689,396L 690,396.502L 692,397.5195L 694,398.5898L 696,399.7539L 698,401L 699,401.5703L 701,402.752L 703,404L 704,404.5703L 706,405.752L 708,407L 709,407.5703L 710,408.1611L 712,409.3828L 714,410.6729L 715,411.3364L 717,412.666L 719,414L 720,414.666L 722,416L 723,416.666L 725,418L 726,418.666L 728,420L 729,420.666L 730,421.333L 732,422.6743L 733,423.3618L 733.9858,424.0757L 734.9241,424.8338L 735.7679,425.6512L 737.1699,427.4156L 737.8425,429.4114L 737.5948,431.5012L 736.512,433.4652L 735.7038,434.3297L 733.9478,436.0268L 732,437.6777L 730,439.248L 729,440L 727,441.5098L 725,442.9551L 723,444.3281L 722,445L 720,446.5098L 718,447.9551L 717,448.6416L 715,449.998L 713,451.334L 712,452L 710,453.334L 709,454L 707,455.3247L 705,456.6152L 703,457.8384L 701,459L 700,459.624L 698,460.8389L 696,462L 695,462.624L 693,463.8389L 691,465L 689,466.2256L 687,467.3872L 685,468.4731L 684,469L 683,469.6128L 681,470.8062L 680,471.3666L 678,472.4539L 676,473.4888L 674,474.4984L 673,475L 672,475.6128L 670,476.8062L 669,477.3666L 667,478.4539L 666,478.9713L 664,479.9935L 663,480.4963L 661,481.4995L 660,481.9997L 658,483L 657,483.5L 655,484.5L 654,485L 652,486L 650,487L 648,488L 646,489L 643.9961,490L 641.9609,491L 639.8203,492L 637.4922,493L 635,494L 632.9961,495L 630.9609,496L 628.8203,497L 626.4922,498L 624,499L 621.9609,500L 619.8203,501L 617.4922,502L 615,503L 613,504L 611,505L 609,506L 609,507L 612,507L 613.4453,506.7539L 614.9199,506.5479L 616.3955,506.3999L 617.748,506.4092L 618.9146,507.0925L 619.3853,508.6296L 617.4814,509.9917L 615,511L 612.8242,512L 610.4922,513L 608,514L 605.5313,515L 603,516L 600.5313,517L 598,518L 595.5313,519L 593,520L 590.5313,521L 588,522L 585.5313,523L 583,524L 580.5313,525L 578,526L 575.5313,527L 573,528L 571.7461,528.5L 569.1582,529.5L 566.4121,530.5L 565,531L 563.7461,531.5L 561.1582,532.5L 558.4121,533.5L 557,534L 556,535L 556,536Z" style="fill:rgb(3,3,3);"/>
<path d="M 646,625L 647.5078,624.7539L 650.6563,624.3438L 654,624.1094L 657.3516,624.0195L 659,624L 660.4453,623.7539L 663.3945,623.3418L 666.4492,623.0879L 668,623L 669.4453,622.7539L 672.3945,622.3418L 675.4492,622.0879L 677,622L 678.3633,621.752L 681.1406,621.3223L 684,621L 685.3633,620.752L 688.1406,620.3223L 691,620L 692.4688,619.7344L 695.4688,619.2344L 697,619L 698.2344,618.7344L 700.7344,618.2344L 702,618L 703.2344,617.7344L 705.7344,617.2344L 707,617L 708.2344,616.7344L 710.7344,616.2344L 712,616L 713.332,615.666L 716,615L 717,613L 717,611L 716,609L 715,608L 714,607L 713,606L 710,606L 709,606L 707,606L 705.5313,606.2656L 702.5313,606.7656L 701,607L 699.7656,607.2656L 697.2656,607.7656L 694.5313,608.2656L 691.5313,608.7656L 690,609L 688.5313,609.2656L 685.5313,609.7656L 684,610L 682.4961,610.248L 679.3555,610.6777L 676,611L 674.4961,611.248L 671.3555,611.6777L 668,612L 666.4922,612.2461L 663.3164,612.6582L 659.8242,612.9121L 658,613L 656.4922,613.2461L 653.3125,613.6563L 649.7852,613.8926L 646,614L 644.4922,614.2461L 641.3125,614.6563L 637.7813,614.8906L 634.082,614.9785L 630.6211,614.998L 629,615L 626,616L 625,617L 624,618L 624,622L 625,624L 626,625Z" style="fill:rgb(3,3,3);"/>
<path d="M 643,358L 648,358L 649.5078,357.7539L 652.6875,357.3438L 656.2188,357.1094L 660.043,357.0215L 663.7539,357.002L 667.2461,357.002L 670.957,357.0215L 674.7813,357.1094L 678.3125,357.3438L 681.4922,357.7539L 683,358L 686.957,358.0215L 690.7813,358.1094L 694.3125,358.3438L 697.4922,358.7539L 699,359L 700.8242,359.0879L 704.3164,359.3418L 707.4922,359.7539L 709,360L 711.8594,360.3223L 714.6367,360.752L 716,361L 717.5313,361.2344L 720.5313,361.7344L 722,362L 727,362L 729,361L 730,360L 731,358L 731,357L 730,356L 729,355L 727.7344,354.7656L 725.2344,354.2656L 724,354L 722.7344,353.7656L 720.2344,353.2656L 719,353L 716.1406,352.6777L 713.3633,352.248L 712,352L 710.4492,351.9121L 707.3945,351.6582L 704.4453,351.2461L 703,351L 701.3516,350.9805L 698,350.8906L 694.6563,350.6563L 691.5078,350.2461L 690,350L 643,350L 640,351L 639,353L 639,355L 640,356L 641,357Z" style="fill:rgb(3,3,3);"/>
<path d="M 731,611L 732.332,610.666L 735,610L 736,609L 736,603L 735,602L 734,601L 728,601L 725,602L 724,603L 724,609L 725,610L 726,611Z" style="fill:rgb(3,3,3);"/>
<path d="M 739,366L 744,366L 745,365L 745,360L 744,359L 738,359L 737,360L 737,365Z" style="fill:rgb(3,3,3);"/>
<path d="M 751,605L 753.4688,604L 756,603L 758.4688,602L 761,601L 763.1758,600L 765.5078,599L 768,598L 770,597L 772,596L 774,595L 776,593.7744L 778,592.6128L 780,591.5269L 781,591L 782,590.376L 784,589.1611L 786,588L 788,586.666L 789,586L 790,585.2344L 792,583.7344L 793,583L 795,581.3223L 797,579.752L 798,579L 799,578L 800,577L 801,576L 802,575L 803,574L 804,573L 805,572L 806,571L 807,570L 807.7686,569L 809.3491,567L 811,565L 811.666,564L 813,562L 813.666,561L 815,559L 816,557L 817,555L 818,553L 818.5,551.7344L 819.5,549.2344L 820,548L 821,545L 821.666,542.332L 822,541L 822.2344,539.4688L 822.7344,536.4688L 823,535L 823,524L 822,522L 821,521.334L 819,520L 815,520L 814,521L 813,522L 812.8926,525.7852L 812.6563,529.3125L 812.4512,530.9023L 812.2236,532.4629L 811.7236,535.5508L 811.418,537.0586L 810.7332,540.0142L 810.3204,541.4148L 809.4426,544.1108L 808.9648,545.3486L 808.4787,546.5335L 807.4939,548.8121L 806.4799,550.9416L 805.945,551.9643L 804.8237,553.9926L 803.5811,555.999L 802.1895,557.9999L 800.6465,560L 799,562L 798.1964,562.998L 796.5455,564.9785L 794.7899,566.8906L 792.9237,568.6563L 790.9829,570.2461L 790,571L 788,572.6777L 786,574.248L 785,575L 784,575.7637L 782,577.2393L 780,578.5977L 778,579.8369L 776,581L 775,581.6128L 773,582.8062L 772,583.3666L 770,584.4539L 769,584.9713L 767,585.9935L 766,586.4963L 765,586.9979L 762.9961,587.9997L 760.9609,589L 758.8203,590L 756.4922,591L 755.2461,591.5L 752.7461,592.5L 750.1582,593.5L 747.4121,594.5L 746,595L 745,596L 744,597L 743,598L 743,600L 744,603L 745,605L 746,606L 748,606Z" style="fill:rgb(3,3,3);"/>
<path d="M 778,522L 779,521.0879L 781,519.3418L 783,517.7539L 784,517L 785,516.002L 787,514.0215L 789,512.1094L 791,510.3438L 793,508.7539L 794,508L 795,507.002L 797,505.0215L 799,503.1094L 800.0039,502.2295L 802.0391,500.5874L 803.1094,499.907L 804.2266,499.3267L 805.3877,498.8647L 806.5811,498.5363L 807.7905,498.3513L 809,498.3143L 810.1964,498.4246L 812.5435,498.9279L 813.656,499.4423L 815.7901,500.6814L 816.7514,501.4777L 818.5424,503.1822L 820.0657,505.0568L 821.3468,507.0138L 822.4671,509.0022L 823,510L 825,510L 825,500L 824.7344,498.7656L 824.2344,496.2656L 824,495L 823.7344,493.7656L 823.2344,491.2656L 822.7344,488.5313L 822.2344,485.5313L 822,484L 821.6025,481.2354L 821.3762,478.3376L 821.406,476.8479L 821.6125,473.9041L 822.0688,471.0649L 822.3749,469.6956L 823.0324,466.961L 823.7778,464.1982L 824.6128,461.3643L 825.5269,458.4639L 826,457L 826.376,455.6113L 827.1611,452.8184L 828,450L 828,444L 827,444L 826,445L 825.334,446L 824,448L 822.6602,450.4785L 821.2598,452.8066L 819.7686,454.96L 819,456L 818.2612,456.9932L 816.771,458.9434L 815.2388,460.7715L 814.4275,461.5811L 812.7263,463.0796L 811.7831,463.709L 810.7879,464.2672L 808.7097,465.2035L 806.5042,465.6985L 804.2768,465.6248L 802.1079,464.989L 801.054,464.4945L 799,463.5L 798,463L 796.7744,462.6128L 794.3877,461.8062L 793.2668,461.3666L 791.0923,460.4539L 789.0225,459.4888L 787.0032,458.4984L 786,458L 783,457L 780,456L 778,456L 778,458L 779,459L 780,460L 782,462L 782.9121,462.7739L 784.6582,464.3813L 786.2461,466.1074L 787,467L 788,468L 789.7539,469.7676L 790.4878,470.5693L 791.9023,472.252L 793.1841,474.1001L 794.2754,476.125L 795.1235,478.3452L 795.4321,479.5496L 795.9485,481.959L 796.0865,483.1406L 796.1919,485.4673L 796.0598,486.5935L 795.8391,487.6982L 795.2482,489.8649L 794.4083,491.9537L 793.3953,493.9888L 792.8197,494.9935L 791.6152,496.9991L 790.3271,498.9999L 789.6635,500L 788.334,502L 787,504L 785.7852,506L 784.4521,508L 783,510L 781.7334,512L 780.3301,514L 778.7334,516L 777,518L 775.5156,520L 774,522L 774,523L 776,523Z" style="fill:rgb(3,3,3);"/>
<path d="M 0,0L 0,856L 856,856L 856,0ZM 32.1155,376.9785L 32.0729,375.4139L 32.0347,372.3543L 32.1089,369.3643L 32.3433,366.3799L 32.5486,364.9126L 32.7743,363.4963L 33.2676,360.7471L 33.5693,359.4214L 34.25,356.7695L 34.6643,355.4514L 35.5471,352.8625L 36.0278,351.6382L 37.0046,349.2825L 37.5025,348.1888L 38.0023,347.1238L 39.0118,345.036L 40.0654,343.0074L 41.2266,341.001L 42.5488,339.0001L 43.2744,338L 44.0044,337L 44.7444,336L 45.4944,335L 46.2565,334L 47.035,333L 47.8346,332L 49.4834,330.002L 51.238,328.0215L 53.0962,326.1094L 55.0307,324.3438L 57.0062,322.7539L 58,322L 59,321.1611L 61,319.5439L 63,318.0557L 65,316.6729L 66,316L 68,314.5479L 70,313.2148L 72,312L 74,310.7744L 76,309.6128L 78,308.5269L 79,308L 80.0039,307.3872L 82.0391,306.1938L 84.1797,305.073L 86.5078,304.019L 89,303L 91.0391,302L 93.1797,301L 95.5078,300L 96.7539,299.5L 98.0039,299L 100.5488,298L 101.8828,297.5049L 104.6006,296.5522L 105.9673,296.1602L 107.2913,295.8687L 108.55,295.7087L 109.7824,295.8104L 112.0492,296.6329L 113.4968,298.5174L 113.4921,299.6341L 113.1451,300.6484L 112.535,301.5494L 110.9196,303.1458L 108.7056,304.405L 106.1621,305.4828L 103.4136,306.4984L 102,307L 99.5313,308L 97,309L 95,310L 93,311L 91,312L 89,313L 87,314L 85,315L 83,316L 81,317L 79,318L 77,319.3247L 75,320.6152L 73,321.8384L 71,323L 70,323.7656L 68,325.2656L 67,326L 66,326.9121L 64,328.6582L 62,330.2461L 61,331L 60,332L 59,333L 58,334L 57,335L 56,336L 55.2314,337L 53.6509,339L 52,341L 51.334,342L 50,344L 49.334,345L 48,347L 47,349L 46,351L 45,353L 44,356L 43,359L 42.334,361.668L 42,363L 41.9121,364.5508L 41.6582,367.6055L 41.2461,370.5547L 41,372L 41,374L 41.2461,375.4453L 41.6582,378.3945L 41.9121,381.4492L 42,383L 42.2656,384.2344L 42.7656,386.7344L 43,388L 44,391L 44.4951,392.4951L 44.9714,393.9758L 45.4056,395.4313L 46.1313,398.271L 46.2913,399.5989L 46.3046,402.1105L 45.9727,403.1703L 45.2165,404.0365L 43.2014,405.1644L 40.9118,404.8905L 40.0708,404.088L 38.6346,402.1401L 37.5216,399.7474L 36.5195,397.1875L 35.5898,394.5078L 34.7535,391.7565L 34.3798,390.3584L 33.6633,387.5321L 33.0261,384.6528L 32.7626,383.1958L 32.3396,380.1685L 32.1801,378.5982ZM 50.955,420.5002L 50.1302,419.7649L 49.6411,418.8559L 50.1716,417.1744L 51.0246,416.3195L 52.921,415.7976L 53.6512,416.4967L 54.2564,418.4521L 53.1063,420.3206L 52.0812,420.9329ZM 60.8384,436.7891L 60.4121,435.6733L 60.1885,434.5798L 60.2612,433.4531L 60.7204,432.3705L 61.5041,431.526L 62.4911,431.0161L 63.5744,430.8472L 64.6842,430.978L 65.7847,431.3508L 66.8631,431.9089L 68.9713,433.298L 70.9853,435.0785L 72.8959,437.016L 74.6574,439.0022L 76.2462,441.0001L 77,442L 78,443L 79,444L 80,445L 81,446L 82,446.8145L 83,447.6476L 85,449.3593L 87,451.1671L 89,453.0635L 91,455.0185L 93,457L 95,458.5776L 97,460.2444L 99,462L 100,462.7686L 102,464.3491L 104,466L 106,467.4844L 108,469L 110,470.4844L 112,472L 114,473.4844L 116,475L 118,476.4844L 120,478L 121,478.666L 123,480L 124,480.666L 126,482L 127,482.666L 129,484L 130,484.666L 132,486L 133,486.666L 135,488L 136,488.666L 138,490L 139,490.5703L 140,491.1611L 142,492.3828L 144,493.6729L 146,495L 147,495.5703L 149,496.752L 151,498L 153,498L 155,497L 157,495.6753L 159,494.3848L 161,493.1616L 163,492L 164,491.376L 166,490.1611L 168,489L 169,488.376L 171,487.1611L 173,486L 175.0347,484.8525L 176.0701,484.3895L 178.2749,484.0988L 179.1644,484.7512L 180.1354,486.5248L 179.8432,487.5183L 178.7468,489.2596L 176.9713,490.6277L 175,491.8389L 173,493L 172,493.624L 170,494.8389L 168,496L 167,496.624L 165,497.8389L 163,499L 161,500.334L 160,501L 160,503L 161,503.666L 163,505L 164,505.502L 166,506.5195L 168,507.5898L 170,508.7539L 172,510L 174,511L 176,512L 178,513L 180,514L 182,515L 184,516L 186,517L 188,518L 190,519L 191,519.5L 192,520.001L 193.998,521.0117L 194.9873,521.541L 196.9199,522.6719L 198.6719,524.0146L 200.0098,525.6572L 200.2642,526.6956L 200.2161,527.7418L 199.5452,529.6176L 198.7168,530.2053L 196.7787,530.9313L 195.6392,530.9037L 193.3596,530.5889L 192.2509,530.2334L 190.0903,529.4258L 189.0563,528.9554L 187.0129,527.9915L 186.0074,527.4952L 184.001,526.4995L 183.0005,525.9997L 182.0003,525.4998L 180,524.498L 178,523.4805L 176,522.4102L 174,521.2461L 172,520L 171,519.5L 169,518.498L 167,517.4805L 165,516.4102L 163,515.2461L 161,514L 160,513.4824L 158,512.4102L 156,511.2461L 154,510L 152,509L 148,509L 147,509.7656L 145,511.2656L 144,512L 143,512.7656L 141,514.2656L 140,515L 139,515.7656L 137,517.2656L 136,518L 134,519.6777L 132,521.248L 131,522L 129,523.8926L 127,525.6563L 125,527.2461L 124,528L 123,529L 122,530L 121,531L 120,532L 119,533L 118,534L 117,535L 116,536L 115,537L 114,538L 113.2314,539L 111.6509,541L 110,543L 108.5156,545L 107,547L 106.4297,548L 105.248,550L 104,552L 103,554L 102,557L 101,560L 101,572L 102,574L 103.334,576L 104,577L 105,578L 106,579L 107,580L 108,581L 109,582L 110,582.666L 112,584L 113,584.666L 114.9307,586.001L 116.457,587.5122L 116.6675,588.8918L 116.0232,590.1412L 115.1761,590.7532L 113.2607,591.1482L 112.194,590.7875L 111.1377,590.3217L 110.0942,589.7779L 109.0626,589.173L 108.0406,588.5164L 106.0129,587.1092L 104.0233,585.5257L 103.0664,584.6564L 102.1465,583.7557L 100.3921,581.8992L 99.6045,580.9147L 98.1201,578.8736L 96.8193,576.6579L 96.2731,575.4331L 95.3143,572.8356L 94.656,569.9297L 94.3508,566.7695L 94.4124,563.5615L 94.6031,562.0513L 95.1001,559.1748L 95.4451,557.8765L 96.2021,555.4033L 96.6378,554.2751L 97.5483,552.0928L 98.5308,550.0225L 99.5916,548.0034L 100.1728,547.0018L 100.7783,546.001L 102.0318,544.0001L 103.3677,542L 104.7998,540L 106.3525,538L 108,536L 108.8145,535L 109.6476,534L 110.5034,533L 111.3833,532L 112.2863,531L 114.1338,529.002L 116.0525,527.0215L 118.0169,525.1094L 120.0043,523.3438L 122.0007,521.7539L 123,521L 124,520.0879L 126,518.3418L 128,516.7539L 129,516L 131,514.3223L 133,512.752L 134,512L 135,511.2344L 137,509.7344L 138,509L 139,508.2344L 141,506.7344L 142,506L 143,505L 143,504L 142,503L 141,502.334L 139,501L 138,500.4297L 137,499.8389L 135,498.6172L 133,497.3271L 132,496.6636L 130,495.334L 128,494L 127,493.334L 125,492L 124,491.334L 122,490L 121,489.334L 120,488.667L 118,487.3257L 116,485.9507L 114,484.5073L 112,483L 110,481.5156L 108,480L 106,478.5156L 104,477L 102,475.5156L 101,474.7578L 99,473.2314L 97,471.6509L 95,470L 93,468.4224L 91,466.7556L 89,465L 87,463.3709L 85,461.6677L 83,459.8568L 81,457.9533L 79,456L 78,455.1855L 77,454.3524L 75.002,452.6407L 73.0215,450.8329L 71.1094,448.9364L 69.3438,446.9809L 67.7539,444.9963L 67,444L 65.0225,441.998L 64.0718,440.9893L 62.2827,438.9375ZM 128.1875,595.1934L 127.5938,596.1719ZM 153,595L 154.332,594.666L 157,594L 159,592.666L 160,592L 161,591L 162,589L 163,587L 163.6729,584.3184L 164.3828,581.5977L 165.1611,578.8184L 166,576L 166.4548,574.9363L 167.231,574.2739L 168.3701,574.5137L 169.7312,576.4197L 169.9746,580.0469L 169.998,584.0039L 170,586L 170.334,587.332L 171,590L 172,593L 173,594L 174,595L 175,595.666L 177,597L 179,598L 182,599L 184.668,599.666L 185.892,600.1071L 186.8107,600.8705L 187.0512,602.0511L 185.9566,603.0428L 183.5404,604.4391L 180.8945,605.1758L 178.2852,605.7539L 177,606L 174,607L 172,608L 171,609L 170,611L 169,614L 168.9849,615.666L 168.8733,617.3433L 168.3059,620.2275L 167.3441,620.8696L 165.7773,620.6084L 165.2726,619.5488L 164.3907,617.231L 163.6729,614.6543L 163,612L 162,609L 161,607L 160,606L 159,605L 158,604L 157,603.334L 155,602L 153.752,601.4297L 152.5327,600.8247L 151.3796,600.1497L 150.4202,599.3611L 149.4587,597.5624L 150.5331,595.8846ZM 208.0631,600.9562L 211.0569,600.2558L 214.3555,600.043L 216,600L 217.5078,599.7539L 220.6875,599.3438L 224.2188,599.1094L 228.043,599.0215L 232.0039,599.002L 235.5,599L 237,599L 238.3115,598.8398L 240.8682,598.6914L 242.0625,598.8975L 243.1384,599.3655L 244.8335,600.7302L 244.9565,602.0973L 244.5514,603.0695L 243.0131,604.494L 240.4321,605.2192L 237.3125,605.6563L 233.7813,605.8906L 229.957,605.9785L 225.9961,605.998L 224,606L 222.4922,606.2461L 219.3164,606.6543L 215.8262,606.8672L 214.0137,606.8564L 210.5325,606.6787L 209.0568,606.329L 207.8455,605.7711L 206.3452,604.236L 207.0597,602.1076ZM 205,501L 204,498.8242L 203,496.4922L 202,494L 201,491.8242L 200,489.4922L 199,487L 198,484.8242L 197,482.4922L 196,480L 195,477.8242L 194,475.4922L 193,473L 192,470.8242L 191,468.4922L 190,466L 189,463.5313L 188,461L 187.5,459.9102L 186.502,457.6406L 185.5234,455.166L 185.0781,453.8359L 184.3047,451.1328L 184.0791,449.7559L 183.8555,446.9956L 183.9771,445.6099L 184.208,444.2267L 184.8632,441.485L 185.8535,438.8398L 187.0872,436.376L 188.4863,434.1357L 189.9777,432.1228L 191.5298,430.3384L 192.3455,429.5452L 193.213,428.7467L 194.1266,427.9464L 195.0734,427.1606L 197.014,425.6476L 198.0265,424.9669L 200.1113,423.6908L 202.3613,422.561L 204.834,421.5326L 207.4941,420.5917L 208.8672,420.1729L 211.5801,419.3975L 214.1943,418.7549L 216.7344,418.2344L 218,418L 219.2344,417.7344L 221.7344,417.2344L 223,417L 225.6367,416.3457L 228.2051,415.7471L 230.7344,415.2344L 232,415L 233.2344,414.7344L 235.7344,414.2344L 237,414L 238.2344,413.7344L 240.7344,413.2344L 242,413L 243.2344,412.7344L 245.7344,412.2344L 247,412L 248.2344,411.7344L 250.7344,411.2344L 252,411L 253.2344,410.7344L 255.7344,410.2344L 257,410L 259.6367,409.3457L 262.2051,408.7471L 264.7344,408.2344L 266,408L 267.2344,407.7344L 269.7344,407.2344L 271,407L 272.2344,406.7344L 274.7344,406.2344L 276,406L 277.2344,405.7344L 279.7344,405.2344L 281,405L 283.6367,404.3457L 286.2051,403.7471L 288.7344,403.2344L 290,403L 291.2344,402.7344L 293.7344,402.2344L 295,402L 296.2344,401.7344L 298.7344,401.2344L 300,401L 302.4746,400.501L 303.7002,400.3301L 306.0732,400.1855L 307.1367,400.3708L 309.0762,401.0664L 310.6426,402.366L 311.9004,404.124L 312.9824,406.1917L 313.9985,408.5085L 315,411L 316,413.1758L 317,415.5078L 318,418L 319,420.4688L 320,423L 321,425.1758L 322,427.5078L 323,430L 324,432.0391L 325,434.1797L 326,436.5078L 327,439L 328,441.4688L 329,444L 330,446.0391L 331,448.1797L 332,450.5078L 333,453L 334,455.1758L 335,457.5078L 336,460L 337,462.1758L 338,464.5078L 339,467L 340,469.1758L 341,471.5078L 342,474L 343,476.1758L 344,478.5078L 345,481L 346,483.1758L 347,485.5078L 348,488L 349,490.4688L 350,493L 351,495.0391L 352,497.1797L 353,499.5078L 354,502L 355,504.4688L 356,507L 357,509.1758L 358,511.5078L 359,514L 360,516.1758L 361,518.5078L 362,521L 362.5,522.0898L 363.5,524.3633L 364.5,526.8633L 365.5,529.5898L 366,531L 366.5,532.2744L 367.498,534.8838L 368.4785,537.6187L 368.9336,539.0415L 369.7598,541.9482L 370.0615,543.4778L 370.5068,546.6112L 370.5581,548.209L 370.4775,551.3262L 370.264,552.7586L 369.9807,554.1026L 369.298,556.6294L 368.4203,558.8835L 367.397,560.974L 366.2443,562.9963L 365,565L 364.4824,566L 363.4102,568L 362.2461,570L 361,572L 360.4824,573L 359.9463,574L 358.8223,575.9961L 358.189,576.9785L 356.7988,578.8867L 355.0981,580.6133L 352.9854,582.0254L 350.4326,583.0449L 347.5244,583.7266L 346,584L 344.7656,584.2656L 342.2656,584.7656L 339.5313,585.2656L 336.5313,585.7656L 335,586L 333.5313,586.2656L 330.5313,586.7656L 329,587L 327.5313,587.2656L 324.5313,587.7656L 323,588L 321.5313,588.2656L 318.5313,588.7656L 317,589L 315.6367,589.248L 312.8594,589.6777L 310,590L 308.6367,590.248L 305.8594,590.6777L 303,591L 301.6367,591.248L 298.8594,591.6777L 296,592L 294.6367,592.248L 291.8594,592.6777L 289,593L 287.4961,593.248L 284.3555,593.6777L 281,594L 279.5547,594.2461L 276.6055,594.6582L 273.5508,594.9121L 272,595L 270.4922,595.2461L 267.3164,595.6582L 263.8242,595.9121L 262,596L 260.4922,596.2461L 257.3164,596.6582L 253.8242,596.9121L 250.8496,596.9951L 248.6689,596.7324L 246.7969,595.8228L 246.0391,594.9924L 245.3533,594.052L 244.0972,592.0398L 243.0134,589.8395L 242,587.4922L 241,585L 240,582.8242L 239,580.4922L 238,578L 237,575.8242L 236,573.4922L 235,571L 234,568.8242L 233,566.4922L 232,564L 231,561.8242L 230,559.4922L 229,557L 228,554.8242L 227,552.4922L 226,550L 225,547.9609L 224,545.8203L 223,543.4922L 222,541L 221,538.5313L 220,536L 219,533.8242L 218,531.4922L 217,529L 216,526.8242L 215,524.4922L 214,522L 213,519.8242L 212,517.4922L 211,515L 210,512.8242L 209,510.4922L 208,508L 206.9346,505.6387L 205.9336,503.3086ZM 181.0869,400.4224L 179.6411,400.5432L 178.2163,400.5798L 175.4312,400.4592L 174.1274,400.188L 172.8979,399.8005L 170.6333,398.7928L 169.747,398.0625L 168.3166,396.4065L 167.9655,395.4179L 167.6225,393.359L 167.9101,391.2119L 168.6314,389.0889L 169.6111,387.0255L 170.7563,385.0045L 172,383L 172.502,382L 173.5195,380L 174.5898,378L 175.7539,376L 177,374L 177.5703,373L 178.752,371L 180,369L 180.5176,368L 181.5898,366L 182.7539,364L 184,362L 184.5176,361L 185.5898,359L 186.7539,357L 188,355L 188.5703,354L 189.752,352L 191,350L 191.5176,349L 192.5898,347L 193.7539,345L 195,343L 195.5703,342L 196.752,340L 198,338L 198.5176,337L 199.5898,335L 200.7539,333L 202,331L 202.5703,330L 203.752,328L 205,326L 205.5176,325L 206.5898,323L 207.7539,321L 209,319L 209.5703,318L 210.752,316L 212,314L 212.5703,313L 213.752,311L 215,309L 215.5176,308L 216.5898,306L 217.7539,304L 219,302L 219.5703,301L 220.752,299L 222,297L 222.5703,296L 223.752,294L 224.376,293L 225.6334,291.002L 226.3018,290.0117L 227.7257,288.0664L 228.5313,287.1523L 230.2314,285.4268L 232.0849,283.9287L 234.0609,282.6719L 235.1224,282.1504L 237.3363,281.1985L 239.6975,280.4302L 242.1094,279.8918L 244.5,279.6914L 245.6953,279.7915L 248.0967,280.1611L 250.4844,280.8208L 251.6313,281.2629L 253.8545,282.2502L 254.8972,282.8445L 256.9111,284.1294L 257.8347,284.8678L 259.5714,286.4377L 260.3223,287.3092L 261.7104,289.119L 262.3073,290.0771L 262.8741,291.0492L 263.9639,293.0166L 264.9926,295.0414L 265.999,297.18L 266.9999,299.5078L 268,302L 269,304.4688L 270,307L 271,309.1758L 272,311.5078L 273,314L 274,316.0391L 275,318.1797L 276,320.5078L 277,323L 278,325.1758L 279,327.5078L 280,330L 281,332.4688L 282,335L 283,337.0391L 284,339.1797L 285,341.5078L 286,344L 287,346.1758L 288,348.5078L 289,351L 290,353.1758L 291,355.5078L 292,358L 293,360.1758L 294,362.5078L 295,365L 295.9922,367.166L 296.9141,369.4336L 297.4902,371.7646L 297.2168,373.9902L 295.8516,375.8242L 293.7188,377.0391L 291.2656,377.7393L 290,378L 288.7656,378.2656L 286.2656,378.7656L 285,379L 283.7656,379.2656L 281.2656,379.7656L 280,380L 277.3633,380.6543L 274.7949,381.2529L 272.2656,381.7656L 271,382L 269.7656,382.2656L 267.2656,382.7656L 266,383L 264.7656,383.2656L 262.2656,383.7656L 261,384L 259.7656,384.2656L 257.2656,384.7656L 256,385L 253.3633,385.6543L 250.7949,386.2529L 248.2656,386.7656L 247,387L 245.7656,387.2656L 243.2656,387.7656L 242,388L 240.7656,388.2656L 238.2656,388.7656L 237,389L 234.3633,389.6543L 231.7949,390.2529L 229.2656,390.7656L 228,391L 226.7656,391.2656L 224.2656,391.7656L 223,392L 221.7656,392.2656L 219.2656,392.7656L 218,393L 216.7656,393.2656L 214.2656,393.7656L 213,394L 210.3027,394.6514L 207.5,395.25L 204.5293,395.7646L 203,396L 201.7656,396.2656L 199.2656,396.7656L 198,397L 195.3633,397.6543L 192.7949,398.2529L 190.2656,398.7656L 189,399L 187.7656,399.2656L 185.2656,399.7656L 182.5435,400.2112ZM 163,291L 161.5313,291.2656L 160.0313,291.5156L 158.5664,291.75L 155.7324,292.1416L 154.4224,292.1919L 153.1958,292.098L 150.9863,291.5785L 150.2348,290.8576L 149.2795,289.0416L 149.4492,286.9475L 150.6204,285.2455L 152.489,284.0752L 154.824,283.2978L 157.5129,282.7281L 160.4688,282.2344L 162,282L 163.3633,281.752L 166.1406,281.3223L 169,281L 170.3633,280.752L 173.1406,280.3223L 176,280L 177.5039,279.752L 180.6445,279.3223L 184,279L 185.5078,278.7539L 188.6836,278.3418L 192.1758,278.0879L 194,278L 195.5078,277.7539L 198.6875,277.3438L 202.2148,277.1074L 206,277L 207.2148,276.9297L 209.6348,276.9058L 210.8345,277.0376L 212.0066,277.2653L 213.1157,277.601L 214.14,278.1114L 215.8985,279.4802L 216.8112,281.3541L 216.3863,282.7184L 214.8446,284.6418L 212.1691,285.4836L 208.8052,285.8832L 207,286L 205.4922,286.2461L 202.3125,286.6563L 198.7852,286.8926L 195,287L 193.4922,287.2461L 190.3164,287.6582L 186.8242,287.9121L 185,288L 183.4961,288.248L 180.3555,288.6777L 177,289L 175.6367,289.248L 172.8594,289.6777L 170,290L 168.6367,290.248L 165.8594,290.6777ZM 304,337L 303,334.8242L 302,332.4922L 301,330L 300,327.8242L 299,325.4922L 298,323L 297,320.8242L 296,318.4922L 295,316L 294,313.8242L 293,311.4922L 292,309L 291,306.8242L 290,304.4922L 289,302L 288,299.8242L 287,297.4922L 286,295L 285,292.5313L 284,290L 283.5,288.9102L 283,287.7734L 282.502,286.5854L 281.5215,284.1226L 280.6094,281.5352L 279.8438,278.9141L 279.2539,276.3027L 278.7734,273.6406L 278.4531,270.8906L 278.4551,268.1094L 278.6294,266.7432L 279.1055,264.0742L 279.449,262.8159L 279.8315,261.604L 280.2543,260.4365L 280.7211,259.3086L 281.7531,257.121L 283.0008,255.0566L 284.4917,253.1148L 286.239,251.335L 287.2512,250.5435L 289.4229,249.0586L 291.858,247.7695L 294.4521,246.6934L 297.0821,245.8623L 299.6968,245.2559L 301,245L 303.6367,244.3457L 306.2051,243.7471L 308.7344,243.2344L 310,243L 311.2344,242.7344L 313.7344,242.2344L 315,242L 316.2344,241.7344L 318.7344,241.2344L 320,241L 322.6973,240.3486L 325.5,239.75L 328.4707,239.2354L 330,239L 332.6367,238.3457L 335.2051,237.7471L 337.7344,237.2344L 339,237L 340.2344,236.7344L 342.7344,236.2344L 344,236L 345.2344,235.7344L 347.7344,235.2344L 349,235L 350.2344,234.7344L 352.7344,234.2344L 354,234L 355.2344,233.7344L 357.7344,233.2344L 359,233L 361.6973,232.3486L 364.5,231.75L 367.4707,231.2354L 369,231L 370.2344,230.7344L 372.7344,230.2344L 374,230L 376.6367,229.3457L 379.2051,228.7471L 381.7344,228.2344L 383,228L 384.2344,227.7344L 386.7344,227.2344L 388,227L 389.2344,226.7344L 391.7344,226.2344L 393,226L 395.6367,225.3457L 398.2051,224.7471L 400.7344,224.2344L 402,224L 403.2344,223.7344L 405.7344,223.2344L 407,223L 408.2344,222.7344L 410.7344,222.2344L 412,222L 413.2344,221.7344L 415.7344,221.2344L 417,221L 419.6367,220.3457L 422.2051,219.7471L 424.7344,219.2344L 426,219L 427.2344,218.7344L 429.7344,218.2344L 431,218L 432.2344,217.7344L 434.7344,217.2344L 436,217L 437.332,216.666L 438.666,216.333L 440.001,216.0005L 442.6973,215.3486L 445.5,214.75L 448.4707,214.2354L 450,214L 452.6367,213.3457L 455.2051,212.7471L 457.7344,212.2344L 459,212L 461.6973,211.3486L 464.5,210.75L 467.4707,210.2354L 469,210L 470.2344,209.7344L 472.7344,209.2344L 474,209L 476.4785,208.4912L 477.7227,208.2842L 478.9624,208.1296L 481.4341,207.9524L 482.6641,208.0115L 485.1118,208.2886L 487.5059,208.8677L 488.647,209.2913L 489.7546,209.7734L 491.9103,210.8474L 493.9565,212.1296L 494.9218,212.8678L 495.8467,213.6524L 496.7268,214.4801L 498.393,216.2163L 499.8623,218.114L 500.4875,219.1566L 501.0541,220.2559L 502.0699,222.5623L 502.8405,225.0557L 503.3153,227.6573L 503.3608,228.9654L 503.2378,231.5566L 502.9805,232.8188L 502.3252,235.292L 501.4556,237.646L 500.4739,239.8628L 499.4097,241.9624L 498.2461,243.9937L 497,246L 496.4824,247L 495.4102,249L 494.2461,251L 493,253L 492.4297,254L 491.248,256L 490,258L 489.4824,259L 488.4102,261L 487.2461,263L 486,265L 485.4824,266L 484.4102,268L 483.2461,270L 482,272L 481.498,273L 480.4805,275L 479.4102,277L 478.2461,279L 477,281L 476.4297,282L 475.248,284L 474,286L 473.4824,287L 472.4102,289L 471.2461,291L 470,293L 469.4824,294L 468.4102,296L 467.2461,298L 466,300L 465.4297,301L 464.248,303L 463,305L 462.4824,306L 461.4102,308L 460.2461,310L 459,312L 458.4824,313L 457.4102,315L 456.2461,317L 455,319L 454.4297,320L 453.248,322L 452,324L 451.4824,325L 450.4102,327L 449.2461,329L 448,331L 447.4297,332L 446.248,334L 445.624,335L 444.9953,336L 443.6982,337.998L 442.9863,338.9883L 441.4687,340.9336L 439.7647,342.7617L 438.8223,343.5732L 436.8412,345.0713L 434.653,346.3281L 432.2496,347.3711L 430.9606,347.8054L 428.3407,348.6128L 427.0068,348.9698L 424.3657,349.6508L 421.7949,350.2529L 419.2656,350.7656L 418,351L 415.3633,351.6543L 412.7949,352.2529L 410.2656,352.7656L 409,353L 407.7656,353.2656L 405.2656,353.7656L 404,354L 402.7656,354.2656L 400.2656,354.7656L 399,355L 396.3633,355.6543L 393.7949,356.2529L 391.2656,356.7656L 390,357L 388.7656,357.2656L 386.2656,357.7656L 385,358L 383.7656,358.2656L 381.2656,358.7656L 380,359L 377.3633,359.6543L 374.7949,360.2529L 372.2656,360.7656L 371,361L 369.7656,361.2656L 367.2656,361.7656L 366,362L 363.3633,362.6543L 360.7949,363.2529L 358.2656,363.7656L 357,364L 355.7656,364.2656L 353.2656,364.7656L 352,365L 350.7656,365.2656L 348.2656,365.7656L 347,366L 345.7656,366.2656L 343.2656,366.7656L 342,367L 339.3633,367.6543L 336.7949,368.2529L 334.2656,368.7656L 333,369L 331.7656,369.2656L 329.2656,369.7656L 328,370L 326.7573,370.2422L 325.5103,370.4272L 323.0427,370.6094L 320.7305,370.2896L 318.7712,369.2969L 317.2485,367.6372L 316.0525,365.4609L 315.5262,364.2305L 315.0131,363.0059L 314,360.5313L 313,358L 312,355.8242L 311,353.4922L 310,351L 309,348.9609L 308,346.8203L 307,344.4922L 306,342L 305,339.5313ZM 254.4358,605.7306L 256.63,604.8472L 259.5674,604.3535L 262.7617,604.1074L 266,604L 267.4453,603.7539L 270.3945,603.3418L 273.4492,603.0879L 275,603L 276.4453,602.7539L 279.3945,602.3418L 282.4492,602.0879L 284,602L 285.5039,601.752L 288.6445,601.3223L 292,601L 293.5039,600.752L 296.6445,600.3223L 300,600L 301.4688,599.7344L 304.4688,599.2344L 306,599L 307.3633,598.752L 310.1406,598.3223L 313,598L 314.4688,597.7344L 317.4688,597.2344L 319,597L 320.4688,596.7344L 323.4688,596.2344L 325,596L 326.4688,595.7344L 329.4688,595.2344L 331,595L 332.4688,594.7344L 335.4688,594.2344L 337,594L 339.4922,593.4854L 342.0166,593.0742L 344.3628,593.0845L 345.4822,593.9041L 346.5615,595.7969L 346.0581,597.9316L 345.5291,598.9658L 344.4297,601L 343.248,603L 342,605L 341.4824,606L 340.4102,608L 339.2461,610L 338,612L 337.4297,613L 336.248,615L 335,617L 334.4824,618L 333.4102,620L 332.2461,622L 331,624L 330.4297,625L 329.248,627L 328,629L 327.4824,630L 326.4102,632L 325.2461,634L 324,636L 323.4297,637L 322.248,639L 321,641L 320.498,642L 319.4805,644L 318.4102,646L 317.2461,648L 316,650L 315.4297,651L 314.8389,652L 313.6172,654L 312.3271,656L 311.6624,657L 310.3164,658.998L 308.9146,660.9785L 307.3965,662.8926L 305.6855,664.666L 304.6946,665.457L 302.554,666.9414L 301.3345,667.5859L 298.7783,668.7656L 297.4018,669.2273L 295.9941,669.6017L 293.1369,670.1527L 290.2442,670.2787L 287.419,669.9578L 286.0896,669.5964L 284.8161,669.1557L 282.3801,668.1355L 280.1589,666.8678L 278.1437,665.3887L 276.3401,663.6859L 274.7485,661.7144L 274.0383,660.5853L 273.3702,659.439L 272.1201,657.1746L 271.019,654.9932L 270,652.8203L 269,650.4922L 268,648L 267,645.8242L 266,643.4922L 265,641L 264,638.9609L 263,636.8203L 262,634.4922L 261,632L 260,629.5313L 259,627L 258,624.8242L 257,622.4922L 256,620L 255,617.8242L 254,615.4922L 253,613L 252.6323,611.8804L 252.232,609.5704L 252.9026,607.3371L 255.1179,605.5707ZM 523,245L 523.5176,244L 524.5898,242L 525.7539,240L 527,238L 527.5703,237L 528.752,235L 530,233L 530.5176,232L 531.5898,230L 532.7539,228L 534,226L 534.5703,225L 535.752,223L 537,221L 538.2148,219L 539.542,217.0137L 540.9971,215.0957L 541.7925,214.2109L 543.5024,212.54L 545.4971,211.0771L 547.8076,209.8613L 549.0908,209.416L 551.7368,208.7329L 553.1058,208.6099L 555.8142,208.5847L 557.1047,208.7765L 558.3418,209.0504L 560.7116,209.7449L 561.7973,210.2291L 563.8745,211.3267L 564.8116,212.0055L 566.5658,213.4874L 567.319,214.3403L 568.7099,216.1262L 569.3071,217.0812L 569.8739,218.0515L 570.9639,220.0169L 571.9926,222.0414L 572.999,224.18L 573.9999,226.5078L 575,229L 576,231.1758L 577,233.5078L 578,236L 579,238.4688L 580,241L 581,243.0391L 582,245.1797L 583,247.5078L 584,250L 585,252.1758L 586,254.5078L 587,257L 588,259.1758L 589,261.5078L 590,264L 591,266.1758L 592,268.5078L 593,271L 594,273.1758L 595,275.5078L 596,278L 597,280.1758L 598,282.5078L 599,285L 600,287.4688L 601,290L 602,292.0391L 603,294.1797L 604,296.5078L 605,299L 606,301.1758L 607,303.5078L 608,306L 609,308.1758L 610,310.5078L 611,313L 612,315.4688L 613,318L 614,320.0391L 615,322.1797L 616,324.5078L 617,327L 618,329.1758L 619,331.5078L 620,334L 621,336.1758L 622,338.5078L 623,341L 624,343.1758L 625,345.5078L 626,348L 627,350.1758L 628,352.5078L 629,355L 630,357.4688L 631,360L 632,362.1758L 633,364.5078L 634,367L 635,369.1758L 636,371.5078L 637,374L 638,376.1758L 639,378.5078L 640,381L 641,383.1758L 642,385.5078L 643,388L 644,390.0391L 645,392.1797L 646,394.5078L 647,397L 648,399.1758L 649,401.5078L 650,404L 651,406.4688L 652,409L 653,411.1758L 654,413.5078L 655,416L 656,418.0391L 657,420.1797L 658,422.5078L 659,425L 660,427.1758L 661,429.5078L 662,432L 662.5,433.0898L 663.498,435.3594L 664.4785,437.834L 665.3867,440.498L 666.1133,443.2676L 666.5254,446.0801L 666.543,448.8867L 666.3696,450.2549L 665.8945,452.9258L 665.552,454.1841L 665.1748,455.396L 664.7675,456.5635L 664.3318,457.6914L 663.8661,458.7862L 663.3657,459.8546L 662.8241,460.9027L 662.2353,461.9359L 660.9548,463.9788L 659.4623,465.9741L 658.615,466.932L 657.7292,467.8525L 655.8961,469.6077L 654.9321,470.3954L 653.9562,471.1386L 651.9841,472.542L 650.9713,473.1677L 648.8912,474.3577L 646.6658,475.4338L 644.2519,476.3989L 642.9619,476.8217L 640.3408,477.6153L 639.0068,477.9712L 636.3657,478.6508L 633.7949,479.2529L 631.2656,479.7656L 630,480L 628.7656,480.2656L 626.2656,480.7656L 625,481L 623.7656,481.2656L 621.2656,481.7656L 620,482L 618.7656,482.2656L 616.2656,482.7656L 615,483L 612.3027,483.6514L 609.5,484.25L 606.5293,484.7646L 605,485L 603.7656,485.2656L 601.2656,485.7656L 600,486L 597.3633,486.6543L 594.7949,487.2529L 592.2656,487.7656L 591,488L 589.7656,488.2656L 587.2656,488.7656L 586,489L 584.7656,489.2656L 582.2656,489.7656L 581,490L 578.3633,490.6543L 575.7949,491.2529L 573.2656,491.7656L 572,492L 570.7656,492.2656L 568.2656,492.7656L 567,493L 565.7656,493.2656L 563.2656,493.7656L 562,494L 560.7656,494.2656L 558.2656,494.7656L 557,495L 555.7656,495.2656L 553.2656,495.7656L 552,496L 550.6912,496.3L 548.1055,496.7993L 546.8635,496.8826L 544.481,496.7603L 542.3643,495.9885L 540.6072,494.5093L 539.1986,492.4291L 538,490L 537,487.9609L 536,485.8203L 535,483.4922L 534,481L 533,478.8242L 532,476.4922L 531,474L 530,471.8242L 529,469.4922L 528,467L 527,464.8242L 526,462.4922L 525,460L 524,457.8242L 523,455.4922L 522,453L 521,450.5313L 520,448L 519,445.8242L 518,443.4922L 517,441L 516,438.8242L 515,436.4922L 514,434L 513,431.8242L 512,429.4922L 511,427L 510,424.8242L 509,422.4922L 508,420L 507,417.8242L 506,415.4922L 505,413L 504,410.5313L 503,408L 502,405.8242L 501,403.4922L 500,401L 499,398.9609L 498,396.8203L 497,394.4922L 496,392L 495,389.5313L 494,387L 493,384.8242L 492,382.4922L 491,380L 490,377.8242L 489,375.4922L 488,373L 487,370.9609L 486,368.8203L 485,366.4922L 484,364L 483,361.5313L 482,359L 481,356.8242L 480,354.4922L 479,352L 478.5,350.9102L 477.502,348.6406L 476.5215,346.1621L 476.0664,344.8164L 475.2402,342.043L 474.9385,340.5859L 474.4932,337.6382L 474.4419,336.1655L 474.5225,333.2966L 474.736,331.9669L 475.0193,330.7036L 475.702,328.2976L 476.5797,326.0972L 477.603,324.0228L 478.7557,322.0034L 480,320L 480.5176,319L 481.5898,317L 482.7539,315L 484,313L 484.5703,312L 485.752,310L 487,308L 487.5176,307L 488.5898,305L 489.7539,303L 491,301L 491.5176,300L 492.5898,298L 493.7539,296L 495,294L 495.5176,293L 496.5898,291L 497.7539,289L 499,287L 499.502,286L 500.5195,284L 501.5898,282L 502.7539,280L 504,278L 504.5703,277L 505.752,275L 507,273L 507.502,272L 508.5195,270L 509.5898,268L 510.7539,266L 512,264L 512.5176,263L 513.5898,261L 514.7539,259L 516,257L 516.5703,256L 517.752,254L 519,252L 519.522,251L 520.5991,249L 521.7607,247ZM 332.7654,675.0701L 332.7056,673.6366L 332.8083,670.8628L 333.0576,669.6021L 333.6956,667.219L 334.5513,665.0576L 335.5271,663.0103L 336.5903,661.001L 337.7539,659L 339,657L 339.5703,656L 340.752,654L 342,652L 342.5176,651L 343.5898,649L 344.7539,647L 346,645L 346.5703,644L 347.752,642L 349,640L 349.502,639L 350.5195,637L 351.5898,635L 352.7539,633L 354,631L 354.5703,630L 355.752,628L 357,626L 357.5176,625L 358.5898,623L 359.7539,621L 361,619L 361.5703,618L 362.752,616L 364,614L 364.5703,613L 365.752,611L 367,609L 367.5176,608L 368.5898,606L 369.7539,604L 371,602L 371.5703,601L 372.752,599L 374,597L 374.5703,596L 375.752,594L 377,592L 377.6006,591.0195L 378.8853,589.1133L 380.3965,587.3867L 382.2173,585.9746L 384.3589,584.9551L 386.7534,584.2734L 388,584L 390.6367,583.3457L 393.2051,582.7471L 395.7344,582.2344L 397,582L 399.6367,581.3457L 402.2051,580.7471L 404.7344,580.2344L 406,580L 407.332,579.666L 410,579L 411.332,578.666L 414,578L 415.332,577.666L 418,577L 419.332,576.666L 422,576L 423.332,575.666L 426,575L 427.332,574.666L 430,574L 431.332,573.666L 434,573L 435.332,572.666L 438,572L 439.4141,571.5703L 440.8184,571.1611L 443.5977,570.3828L 446.3184,569.6729L 447.6592,569.3364L 450.332,568.666L 453,568L 454.4141,567.5703L 457.2227,566.752L 460,566L 461.4141,565.5703L 462.8184,565.1611L 465.5977,564.3828L 468.3184,563.6729L 471,563L 472.4141,562.5703L 475.2227,561.752L 478,561L 479.4727,560.5176L 482.3828,559.5898L 485.2188,558.7539L 488,558L 489.4727,557.5176L 492.3828,556.5898L 495.2188,555.7539L 498,555L 501,554L 504,553L 507,552L 510,551L 513,550L 516,549L 519,548L 522,547L 525,546L 527.998,545.0078L 529.4863,544.5449L 532.4121,543.7441L 535.1504,543.3457L 537.5195,543.6348L 539.3965,544.7676L 540.8252,546.6602L 541.4126,547.8301L 541.9563,548.9463L 543,551.1758L 544,553.5078L 545,556L 546,558.4688L 547,561L 548,563.0391L 549,565.1797L 550,567.5078L 551,570L 552,572.4688L 553,575L 554,577.0391L 555,579.1797L 556,581.5078L 557,584L 558,586.4688L 559,589L 560,591.1758L 561,593.5078L 562,596L 563,598.4688L 564,601L 565,603.4688L 565.5,604.7344L 566.4824,607.2266L 567.4102,609.7266L 567.8281,611.0264L 568.2222,612.3423L 568.5964,613.6665L 569.3064,616.3232L 569.9158,618.988L 570.3325,621.6416L 570.3813,622.9434L 570.2957,625.5229L 570.0861,626.8098L 569.5432,629.4004L 569.1708,630.6941L 568.7657,631.963L 568.3311,633.1977L 567.8659,634.3941L 567.3657,635.5525L 566.2826,637.7979L 565.0105,639.9065L 563.5108,641.8727L 561.7613,643.662L 560.749,644.4548L 558.5752,645.9411L 556.1244,647.2324L 553.4775,648.3262L 552.112,648.7769L 549.4118,649.5923L 546.8042,650.2441L 544.2656,650.7656L 543,651L 541.7656,651.2656L 539.2656,651.7656L 538,652L 536.7656,652.2656L 534.2656,652.7656L 533,653L 530.3633,653.6543L 527.7949,654.2529L 525.2656,654.7656L 524,655L 522.7656,655.2656L 520.2656,655.7656L 519,656L 517.7656,656.2656L 515.2656,656.7656L 514,657L 511.3633,657.6543L 508.7949,658.2529L 506.2656,658.7656L 505,659L 503.7656,659.2656L 501.2656,659.7656L 500,660L 498.7656,660.2656L 496.2656,660.7656L 495,661L 492.3633,661.6543L 489.7949,662.2529L 487.2656,662.7656L 486,663L 484.7656,663.2656L 482.2656,663.7656L 481,664L 478.3633,664.6543L 475.7949,665.2529L 473.2656,665.7656L 472,666L 470.7656,666.2656L 468.2656,666.7656L 467,667L 464.3027,667.6514L 461.5,668.25L 458.5293,668.7646L 457,669L 454.3633,669.6543L 451.7949,670.2529L 449.2656,670.7656L 448,671L 445.3633,671.6543L 442.7949,672.2529L 440.2656,672.7656L 439,673L 437.7656,673.2656L 435.2656,673.7656L 434,674L 432.7656,674.2656L 430.2656,674.7656L 429,675L 426.3027,675.6514L 423.5,676.25L 420.5293,676.7646L 419,677L 416.3633,677.6543L 413.7949,678.2529L 411.2656,678.7656L 410,679L 408.7656,679.2656L 406.2656,679.7656L 405,680L 403.7656,680.2656L 401.2656,680.7656L 400,681L 398.7656,681.2656L 396.2656,681.7656L 395,682L 392.3633,682.6543L 389.7949,683.2529L 387.2656,683.7656L 386,684L 384.7656,684.2656L 382.2656,684.7656L 381,685L 379.7656,685.2656L 377.2656,685.7656L 376,686L 373.3633,686.6543L 370.7949,687.2529L 368.2656,687.7656L 367,688L 365.7656,688.2656L 363.2656,688.7656L 362,689L 360.7656,689.2656L 358.2656,689.7656L 357,690L 354.4121,690.6279L 351.9082,691.1172L 350.6953,691.2036L 349.4858,691.1807L 348.2781,691.0529L 347.0754,690.8296L 344.6942,690.2109L 342.3986,689.2755L 341.3364,688.6672L 340.3363,687.9917L 338.4637,686.5108L 337.6505,685.6414L 336.1324,683.7706L 335.477,682.7L 334.2763,680.4202L 333.3379,677.8641ZM 390.6426,569.0396L 391.7646,567.0081L 393,565L 393.5828,564L 394.1874,563L 394.8211,562L 395.4895,561L 396.1975,560L 397.7029,558.0039L 399.4118,556.0391L 400.3918,555.1094L 402.4712,553.3574L 404.7305,551.8652L 407.0732,550.6816L 408.2823,550.2236L 410.7594,549.3896L 412.0525,549.0313L 414.6436,548.3491L 417.2051,547.7471L 419.7344,547.2344L 421,547L 422.2344,546.7344L 424.7344,546.2344L 426,546L 428.6367,545.3457L 431.2051,544.7471L 433.7344,544.2344L 435,544L 436.2344,543.7344L 438.7344,543.2344L 440,543L 441.2344,542.7344L 443.7344,542.2344L 445,542L 447.6367,541.3457L 450.2051,540.7471L 452.7344,540.2344L 454,540L 456.6973,539.3486L 459.5,538.75L 462.4707,538.2354L 464,538L 466.6367,537.3457L 469.2051,536.7471L 471.7344,536.2344L 473,536L 475.6973,535.3486L 478.5,534.75L 481.4707,534.2354L 483,534L 485.6367,533.3457L 488.2051,532.7471L 490.7344,532.2344L 492,532L 494.6367,531.3457L 497.2051,530.7471L 499.7344,530.2344L 501,530L 502.2344,529.7344L 504.7344,529.2344L 506,529L 507.2344,528.7344L 509.7344,528.2344L 511,528L 513.6367,527.3457L 516.2051,526.7471L 518.7344,526.2344L 520,526L 521.2344,525.7344L 523.7119,525.2476L 524.9331,525.0884L 527.3042,524.9771L 528.3866,525.1925L 529.3873,525.5742L 531.2061,526.6379L 531.9126,527.4235L 532.4796,528.3446L 532.8605,529.3669L 533.1663,531.4844L 532.8168,532.4984L 531.6102,534.3285L 530.568,535.052L 528.2078,536.358L 525.4626,537.4481L 522.6069,538.4052L 519.7805,539.2457L 517,540L 514,541L 511,542L 509.5,542.5L 506.5039,543.498L 503.5313,544.4805L 500.6172,545.4102L 497.7813,546.2461L 495,547L 493.5,547.5L 490.5039,548.498L 487.5313,549.4805L 484.6172,550.4102L 481.7813,551.2461L 479,552L 477.5859,552.4297L 474.7773,553.248L 472,554L 470.5859,554.4297L 467.7773,555.248L 465,556L 463.5859,556.4297L 462.1816,556.8389L 459.4023,557.6172L 456.6816,558.3271L 454,559L 452.5859,559.4297L 451.1816,559.8389L 448.4023,560.6172L 445.6816,561.3271L 444.3408,561.6636L 441.668,562.334L 439,563L 437.5859,563.4297L 436.1816,563.8389L 433.4023,564.6172L 430.6816,565.3271L 429.3408,565.6636L 426.668,566.334L 424,567L 422.668,567.334L 420,568L 418.668,568.334L 416,569L 413.3633,569.6543L 410.7949,570.2529L 408.2656,570.7656L 407,571L 405.668,571.334L 403,572L 401.668,572.334L 399,573L 396.3398,573.6484L 393.7168,574.1055L 392.46,574.0488L 391.3379,573.5646L 389.9453,572.0984L 390.1587,570.078ZM 574,575L 573,572.8242L 572,570.4922L 571,568L 570,565.8242L 569,563.4922L 568,561L 567,558.8242L 566,556.4922L 565,554L 564,551.8242L 563,549.4922L 562,547L 561,544.8242L 560.5,543.6582L 560.0291,542.4824L 559.23,540.168L 558.9084,537.9912L 559.1617,537.019L 559.65,536.1238L 560.3398,535.308L 562.0469,533.8242L 564.2791,532.5938L 566.8326,531.5171L 569.5857,530.5015L 571,530L 573.4688,529L 576,528L 578.4688,527L 581,526L 583.4688,525L 586,524L 588.4688,523L 591,522L 593.4688,521L 596,520L 598.4688,519L 601,518L 603.4688,517L 606,516L 608.4688,515L 611,514L 613.1758,513L 615.5078,512L 618,511L 620.0391,510L 622.1797,509L 624.5078,508L 627,507L 629,506L 629,505L 623,505L 621.4907,504.8035L 620.5066,503.9742L 620.313,502.3416L 622.1963,501.019L 624.5078,500L 627,499L 629.0039,498L 631.0391,497L 633.1797,496L 635.5078,495L 638,494L 640,493L 642,492L 644,491L 646,490L 648,489L 650,488L 652,487L 654,486L 656,485L 658,484L 660,483L 662,482L 664,481L 666,480L 668,479L 670,478L 672,477L 673,476.3872L 675,475.1938L 676,474.6334L 678,473.5461L 680,472.5112L 682,471.5016L 683,471L 685,469.7744L 687,468.6128L 689,467.5269L 690,467L 691,466.376L 693,465.1611L 695,464L 696,463.376L 698,462.1611L 700,461L 701,460.376L 703,459.1611L 705,458L 707,456.666L 708,456L 710,454.666L 711,454L 713,452.666L 714,452L 716,450.666L 717,450L 719,448.666L 720,448L 722,446.4902L 724,445.0449L 726,443.6719L 727,443L 728,442.2344L 730,440.7344L 731,440L 733,438.3223L 735,436.752L 736,436L 737,435L 738,434L 739,433L 740,432L 741,431L 742,430L 742,429L 741,428L 740,427L 738,425.5156L 736,424L 735,423.334L 733,422L 732,421.334L 730,420L 729,419.334L 727,418L 726,417.334L 724,416L 723,415.334L 721,414L 720,413.334L 718,412L 717,411.334L 715,410L 714,409.334L 712,408L 711,407.4297L 709,406.248L 707,405L 706,404.4297L 704,403.248L 702,402L 701,401.4297L 699,400.248L 697,399L 696,398.498L 694,397.4805L 692,396.4102L 690,395.2461L 688,394L 687,393.498L 685,392.4805L 683,391.4102L 681,390.2461L 679,389L 677,388L 675,387L 673,386L 671,385L 669,384L 667,383L 665,382L 664,381.5L 662,380.498L 660,379.4805L 658,378.4102L 656,377.2461L 655.0244,376.6328L 653.1611,375.3789L 652.3689,374.6843L 651.6976,373.8011L 650.8849,371.7513L 651.3857,369.6167L 653.1173,368.307L 654.2559,368.2119L 656.6016,368.3855L 657.8189,368.7363L 660.2481,369.5486L 661.4324,370.0268L 662.5839,370.5146L 664.8215,371.5032L 666.9426,372.5195L 668.9871,373.5898L 670.9982,374.7539L 673,376L 675,377L 677,378L 679,379L 680,379.5L 682,380.502L 684,381.5195L 686,382.5898L 688,383.7539L 690,385L 691,385.502L 693,386.5195L 695,387.5898L 697,388.7539L 699,390L 700,390.5703L 702,391.752L 704,393L 705,393.5176L 707,394.5898L 708,395.1719L 710,396.3838L 712,397.6729L 714,399L 715,399.5703L 716,400.1611L 718,401.3828L 720,402.6729L 721,403.3364L 723,404.666L 725,406L 726,406.5815L 728,407.7827L 730,409.0815L 732,410.4985L 734,412L 735,412.666L 736,413.333L 738,414.6743L 740,416.0493L 742,417.4927L 744,419L 746,420.4844L 748,422L 751,422L 752,421L 753,420L 754,419L 755,418L 755.7686,417L 757.3491,415L 759,413L 759.666,412L 761,410L 761.666,409L 763,407L 764,405L 765,403L 766,401L 767,399L 767.666,396.332L 768,395L 768,387L 767,384L 766,382L 764.666,380L 764,379L 763,378L 762,377L 761,376L 759,374.5156L 757,373L 756.0254,372.3691L 755.1016,371.6814L 754.2866,370.8733L 753.6702,369.9768L 753.3992,369.0014L 754.7692,366.8483L 756.8193,366.6175L 758.9525,367.3418L 759.9696,367.9555L 760.979,368.6215L 762.9742,370.0325L 764.8902,371.5823L 765.7732,372.4229L 767.457,374.1772L 768.2324,375.1323L 769.7305,377.1349L 771.0957,379.3373L 771.6799,380.5427L 772.7319,383.0352L 773.5508,385.6504L 774.105,388.3184L 774.3123,390.9971L 774.1543,393.6602L 773.9482,394.9707L 773.4492,397.5615L 773.1113,398.8218L 772.354,401.2925L 771.4595,403.646L 770.4741,405.8628L 769.4097,407.9624L 768.8279,408.978L 768.222,409.9873L 766.9683,411.9982L 765.6323,413.9999L 764.2002,416L 762.6475,418L 761,420L 759.4224,422L 757.7556,424L 756,426L 756,428L 757,429L 758,429.7686L 760,431.3491L 762,433L 764,434.6072L 766,436.3008L 767,437.2059L 768.9531,439.0188L 769.8291,439.9134L 771.3657,441.7219L 771.8533,442.6696L 772.0852,443.6618L 771.9792,444.6609L 771.5557,445.5743L 770.3892,446.465L 769.2898,446.9349L 768.2195,447.0884L 766.1104,446.9034L 764.0469,445.9416L 762.0135,444.5199L 760.0028,442.8253L 758,441L 757,440.2314L 755,438.6509L 753,437L 751,435.5156L 749,434L 748,434L 746,435.334L 745,436L 743,437.8926L 741,439.6563L 739,441.2461L 738,442L 736,443.6777L 734,445.248L 733,446L 731,447.5098L 729,448.9551L 727,450.3281L 726,451L 724,452.5098L 722,453.9551L 721,454.6416L 719,455.998L 717,457.334L 716,458L 714,459.334L 713,460L 711,461.334L 710,462L 708,463.3247L 706,464.6152L 704,465.8384L 702,467L 700,468.2256L 698,469.3872L 696,470.4731L 695,471L 694,471.624L 692,472.8389L 690,474L 689,474.6128L 687,475.8062L 685,476.927L 683,477.981L 681,479L 680,479.6128L 678,480.8062L 677,481.3666L 675,482.4539L 674,482.9713L 672,483.9935L 671,484.4963L 669,485.4995L 668,485.9997L 666,487L 665,487.5L 663,488.5L 662,489L 660,490L 658,491L 656,492L 654,493L 652,494L 650,495L 648,496L 646,497L 644,498L 644,499L 649,499L 651.6367,498.3457L 654.2051,497.7471L 656.7344,497.2344L 658,497L 659.2344,496.7344L 661.7344,496.2344L 663,496L 664.252,495.7898L 665.5029,495.6287L 666.7376,495.5444L 667.9296,495.5656L 669.0536,495.7443L 670.0694,496.1095L 671.7953,497.2012L 672.3162,498.554L 672.7299,500.9242L 672.252,502.9622L 671.3624,504.9899L 670.2397,506.9984L 669,509L 668.4824,510L 667.4102,512L 666.2461,514L 665,516L 664.4824,517L 663.4102,519L 662.2461,521L 661,523L 660.4297,524L 659.248,526L 658,528L 657.4824,529L 656.4102,531L 655.2461,533L 654,535L 653.4824,536L 652.4102,538L 651.2461,540L 650,542L 649.4297,543L 648.248,545L 647,547L 646.4297,548L 645.248,550L 644,552L 643.498,553L 642.4805,555L 641.4102,557L 640.2461,559L 639,561L 638.4297,562L 637.248,564L 636,566L 635.4824,567L 634.4102,569L 633.2461,571L 632,573L 631.498,574L 630.4805,576L 629.4102,578L 628.2461,580L 627,582L 626.4297,583L 625.248,585L 624,587L 623.4824,588L 622.4102,590L 621.2461,592L 620,594L 619.4297,595L 618.248,597L 617,599L 616.4172,600L 615.208,601.998L 614.5452,602.9883L 613.1389,604.9336L 612.3511,605.8477L 610.6874,607.5713L 608.8419,609.0518L 606.7813,610.2344L 605.6154,610.6543L 603.1521,611.2957L 601.8258,611.4078L 600.4987,611.4125L 599.1931,611.3137L 597.9235,611.1159L 596.6968,610.8229L 594.3324,610.0535L 593.2394,609.4926L 591.1469,608.2131L 590.2035,607.431L 589.3216,606.5956L 587.6844,604.8351L 586.2909,602.9088L 585.0958,600.8072L 584.0225,598.4898L 583.5112,597.2449L 583.0056,596.0131L 582,593.5313L 581,591L 580,588.8242L 579,586.4922L 578,584L 577.4717,582.9053L 576.9458,581.7983L 575.9111,579.5635L 574.9282,577.2925ZM 552.8574,522.2805L 553.2985,521.2646L 554.6591,519.5774L 556.7596,518.4884L 559.1959,517.7722L 561.7256,517.2368L 563,517L 564.2344,516.7344L 566.7344,516.2344L 568,516L 569.2344,515.7344L 571.7344,515.2344L 573,515L 575.6367,514.3457L 578.2051,513.7471L 580.7344,513.2344L 582,513L 583.2344,512.7344L 585.7344,512.2344L 587,512L 588.2344,511.7344L 589.4126,511.6587L 588.8058,513.6246L 586.54,514.9894L 584,516L 582.7461,516.5L 580.1582,517.5L 577.4121,518.5L 576,519L 574.7461,519.5L 572.1582,520.5L 569.4121,521.5L 568,522L 565.5313,523L 563.0186,523.9912L 561.7568,524.4561L 559.2422,525.2705L 556.8223,525.6973L 554.6704,525.4839L 553.7375,525.1013L 552.8311,523.4996ZM 651.2227,350.1133L 655.043,350.0215L 659.0039,350.002L 663,350L 670,350L 673.9961,350.002L 677.957,350.0215L 681.7813,350.1094L 685.3125,350.3438L 688.4922,350.7539L 690,351L 691.6484,351.0195L 695,351.1094L 698.3438,351.3438L 701.4922,351.7539L 703,352L 704.5508,352.0879L 707.6055,352.3418L 710.5547,352.7539L 712,353L 714.8594,353.3223L 717.6367,353.752L 718.9512,353.9932L 720.2349,354.2393L 721.4902,354.5049L 722.705,354.8259L 723.8359,355.2415L 724.918,356.0068L 726.3457,357.8143L 725.4706,359.7379L 722.991,360.7192L 720.3122,360.6659L 717.4461,360.2563L 716,360L 713.1406,359.6777L 710.3633,359.248L 709,359L 707.1758,358.9121L 703.6836,358.6582L 700.5078,358.2461L 699,358L 695.043,357.9785L 691.2188,357.8906L 687.6875,357.6563L 684.5078,357.2461L 683,357L 652,357L 650.2048,356.988L 648.6235,356.9355L 645.8294,356.6822L 644.7945,356.3019L 643.9402,355.488L 643.0426,353.5879L 643.9196,351.7896L 646.2852,350.7301L 649.4766,350.248ZM 741.5066,361.2944L 740.7852,360.415ZM 630.7012,616.0093L 633.7151,615.3926L 637.2202,615.1138L 640.918,615.0215L 644.3789,615.002L 646,615L 647.5078,614.7539L 650.6875,614.3438L 654.2148,614.1074L 658,614L 659.5078,613.7539L 662.6836,613.3418L 666.1758,613.0879L 668,613L 669.5039,612.752L 672.6445,612.3223L 676,612L 677.5039,611.752L 680.6445,611.3223L 684,611L 685.4688,610.7344L 688.4688,610.2344L 690,610L 691.4688,609.7344L 694.4688,609.2344L 696,609L 697.2344,608.7344L 698.5088,608.481L 699.834,608.2393L 701.2075,608.0154L 702.6179,607.8219L 705.4766,607.531L 706.8999,607.5227L 709.6354,607.7263L 712.0014,608.4338L 713.5621,609.8062L 713.8063,611.7682L 712.6862,613.6763L 710.6793,614.9587L 708.265,615.7092L 705.7656,616.2656L 703.2656,616.7656L 702,617L 700.7656,617.2656L 698.2656,617.7656L 695.5313,618.2656L 692.5313,618.7656L 691,619L 689.6367,619.248L 686.8594,619.6777L 684,620L 682.6367,620.248L 679.8594,620.6777L 677,621L 675.5547,621.2461L 672.6055,621.6582L 669.5508,621.9121L 668,622L 666.5547,622.2461L 663.6055,622.6582L 660.5508,622.9121L 659,623L 657.4922,623.2461L 654.3438,623.6563L 651,623.8906L 647.6484,623.9805L 646,624L 644.4922,624.2461L 641.3164,624.6543L 637.8262,624.8672L 634.2021,624.8438L 630.8477,624.502L 628.1721,623.6826L 627.3037,622.9854L 626.7189,621.9385L 626.315,619.7539L 627.3712,617.8479L 629.4739,616.5444ZM 785.7118,459.6325L 786.7783,459.8863L 788.8956,460.5779L 790.9679,461.5082L 792.9947,462.5004L 794,463L 796.4521,463.8618L 798.7852,464.8613L 801,466L 803,467L 809,467L 810,466.376L 812,465.1611L 814,464L 815,463L 816,462L 816.7739,461L 818.3813,459L 820.1074,457L 821,456L 821.5703,455L 822.167,453.9971L 822.8574,453.0825L 823.7197,452.5503L 825.0035,453.2408L 825.1238,455.834L 824.3844,458.6383L 823.4731,461.5361L 823,463L 822.334,465.668L 822,467L 821.334,469.668L 821,471L 820.7656,472.5313L 820.2656,475.5313L 820,477L 820,479L 820.2656,480.2344L 820.7656,482.7344L 821.2656,485.4688L 821.7656,488.4688L 822,490L 822.2656,491.2344L 822.7656,493.7344L 823,495L 823.2593,496.251L 823.4978,497.5308L 823.6749,498.8274L 823.7195,500.0812L 823.1981,501.0639L 821.8051,501.4672L 819.2938,501.3157L 817.1063,499.8655L 815,498L 813,497L 810.332,496.334L 809,496L 807,496L 805,497L 803,498.334L 802,499L 801,499.998L 799,501.9785L 797,503.8906L 795,505.6563L 793,507.2461L 792,508L 791,508.998L 789,510.9785L 787,512.8906L 785,514.6563L 784,515.4512L 782.9653,516.0664L 782.0879,515.5649L 782.3379,514.2825L 783.2148,512L 784.5479,510L 786,508L 786.5703,507L 787.1611,506L 788.3828,504L 789.6729,502L 790.3364,501L 791.666,499L 793,497L 794,495L 795,493L 796,491L 797,489L 797,482L 796.7344,480.7656L 796.2344,478.2656L 796,477L 795,475L 794,473L 792.666,471L 792,470L 791,469L 789.3223,467.4629L 787.752,465.8389L 787,465L 785.0732,462.9851L 783.8721,460.7767L 784.6548,459.6079ZM 726.0869,604.7701L 727.5526,603.2968L 728.4971,602.8661L 730.4679,602.4006L 731.8876,602.7776L 732.9874,603.569L 733.6376,604.61L 733.8468,605.698L 733.508,607.704L 732.7376,608.4014L 730.9116,609.3677L 729.8468,609.4334L 728.7524,609.2037L 726.7087,608.2458L 725.4772,605.6321ZM 813.1348,530.2324L 813.3232,528.5283L 813.9434,525.4824L 815.1055,523.3193L 816.416,522.6929L 818.6914,522.4336L 820.4443,523.6406L 821.7295,525.6489L 822.4121,528.1636L 822.5234,530.8955L 822.2246,533.6406L 822,535L 821.5015,538.0225L 820.918,540.9258L 820.2114,543.6787L 819.3862,546.292L 818.9297,547.5371L 818.4581,548.7756L 817.4913,551.2327L 816.4805,553.6123L 815.9453,554.7332L 814.8281,556.9077L 814.2222,557.9426L 812.9683,559.9871L 811.6323,561.9982L 810.2002,563.9999L 808.6475,566L 807,568L 806.1855,569L 804.5193,570.998L 802.7621,572.9785L 800.9038,574.8906L 798.9693,576.6563L 796.9938,578.2461L 796,579L 794,580.6777L 792,582.248L 791,583L 790,583.7637L 788,585.2393L 786,586.5977L 784,587.8369L 782,589L 780,590.2256L 778,591.3872L 776,592.4731L 775,593L 773.9961,593.6128L 771.9609,594.8062L 769.8203,595.927L 767.4922,596.981L 765,598L 762.8242,599L 760.4922,600L 758,601L 755.5488,601.9922L 754.3164,602.4551L 751.8711,603.252L 750.6963,603.4355L 749.5918,603.4287L 747.5469,602.7397L 746.2141,600.9487L 746.17,598.8169L 747.3807,596.9045L 748.4178,596.11L 749.5544,595.3983L 751.9367,594.1078L 754.4505,593.0145L 757,592L 759,591L 761,590L 763,589L 765,588L 767,587L 769,586L 771,585L 773,584L 775,583L 776,582.376L 778,581.1611L 780,580L 782,578.666L 783,578L 784,577.2344L 786,575.7344L 787,575L 789,573.3223L 791,571.752L 792,571L 793,570L 794,569L 795,568L 796,567L 797,566L 798,565L 799,564L 799.7686,563L 801.3491,561L 803,559L 803.666,558L 805,556L 806,554L 807,552L 808,550L 809,548L 810,546L 811,543L 812,540L 812.2344,538.4688L 812.7344,535.4688L 813,534ZM 128.1333,291.104L 129.969,290.1366L 132.3201,290.6096L 132.9798,291.5653L 133.3888,293.6314L 132.3156,295.3608L 129.3976,295.591L 128.432,295.0591L 127.7282,293.9493L 127.5789,291.9717Z" style="fill:rgb(254,254,254);"/>
<circle cx="428" cy="452" r="50" style="fill:rgb(254,254,254);"/>
<circle cx="428" cy="452" r="34" style="fill:rgb(3,3,3);"/>
</svg>